<svg xmlns="http://www.w3.org/2000/svg" width="132" height="106" viewBox="0 0 132 106" fill="none"><path d="M24.8225 97.2114C23.8031 97.2114 22.895 97.046 22.0967 96.7167C21.2983 96.3875 20.6248 95.9379 20.0775 95.3681C19.5302 94.7983 19.1153 94.1473 18.8341 93.4121C18.5529 92.6769 18.4116 91.9056 18.4116 91.0967C18.4116 90.2878 18.5514 89.4925 18.8341 88.7588C19.1153 88.0251 19.5302 87.3726 20.0775 86.8027C20.6248 86.2329 21.2983 85.7834 22.0967 85.4541C22.895 85.1249 23.8046 84.9595 24.8225 84.9595C25.8403 84.9595 26.7469 85.1249 27.5378 85.4541C28.3286 85.7834 28.9977 86.2329 29.5449 86.8027C30.0922 87.3726 30.5102 88.0236 30.8003 88.7588C31.089 89.4925 31.2333 90.2728 31.2333 91.0967C31.2333 91.9206 31.089 92.6769 30.8003 93.4121C30.5117 94.1458 30.0937 94.7983 29.5449 95.3681C28.9977 95.9379 28.3286 96.3875 27.5378 96.7167C26.7469 97.046 25.8418 97.2114 24.8225 97.2114ZM22.1538 91.0967C22.1538 91.7026 22.2711 92.2333 22.5071 92.6919C22.7432 93.149 23.0589 93.5038 23.4543 93.7549C23.8497 94.0059 24.3053 94.1307 24.824 94.1307C25.3427 94.1307 25.7787 94.0014 26.1816 93.7428C26.5846 93.4842 26.9003 93.1264 27.1288 92.6678C27.3574 92.2108 27.4716 91.6861 27.4716 91.0952C27.4716 90.5043 27.3574 89.9586 27.1288 89.5C26.9003 89.0414 26.5846 88.6881 26.1816 88.437C25.7787 88.186 25.3262 88.0612 24.824 88.0612C24.3218 88.0612 23.8497 88.186 23.4543 88.437C23.0589 88.6881 22.7432 89.0429 22.5071 89.5C22.2711 89.9571 22.1538 90.4893 22.1538 91.0952" fill="#F9F7F4"></path><path d="M32.3505 91.0741C32.3505 89.9209 32.579 88.882 33.0345 87.9603C33.4901 87.0387 34.1141 86.308 34.9049 85.7683C35.6957 85.2285 36.6083 84.9594 37.6427 84.9594C38.4787 84.9594 39.2394 85.1609 39.9235 85.5638C40.6076 85.9667 41.1248 86.4959 41.4751 87.1485V80.3271H45.1256V92.9203C45.1256 93.2857 45.1857 93.5398 45.309 93.6841C45.4308 93.8285 45.6277 93.9157 45.9029 93.9457V96.9798C45.2639 97.1015 44.7467 97.1617 44.3513 97.1617C43.7273 97.1617 43.2222 97.0249 42.8343 96.7512C42.4464 96.4776 42.2073 96.0972 42.1156 95.6101L42.0464 94.9936C41.621 95.7394 41.0421 96.2942 40.3129 96.6595C39.5822 97.0249 38.8139 97.2068 38.0081 97.2068C37.2022 97.2068 36.4294 97.0534 35.7378 96.7467C35.0462 96.44 34.4448 96.0085 33.9351 95.4537C33.4255 94.8989 33.0345 94.2464 32.7609 93.4977C32.4873 92.7489 32.3505 91.9386 32.3505 91.0696M41.4992 92.5099V90.0742C41.3473 89.6758 41.1293 89.3285 40.8497 89.0338C40.5685 88.7392 40.2483 88.5016 39.8919 88.3257C39.5341 88.1483 39.1733 88.0596 38.8079 88.0596C38.4125 88.0596 38.0517 88.1408 37.7239 88.3031C37.3962 88.4655 37.112 88.691 36.8684 88.9782C36.6249 89.2669 36.4384 89.5946 36.3091 89.9645C36.1798 90.3328 36.1152 90.7253 36.1152 91.1372C36.1152 91.5492 36.1874 91.9611 36.3317 92.322C36.476 92.6843 36.6775 93.0015 36.9361 93.2737C37.1947 93.5473 37.4984 93.7578 37.8487 93.9051C38.199 94.0525 38.5794 94.1261 38.9899 94.1261C39.2485 94.1261 39.4995 94.0856 39.7431 94.0044C39.9867 93.9232 40.2182 93.8164 40.4392 93.6826C40.6602 93.5503 40.8617 93.3804 41.0436 93.1729C41.2255 92.9654 41.3774 92.7444 41.5007 92.5084" fill="#F9F7F4"></path><path d="M53.6819 97.2109C52.6626 97.2109 51.7575 97.0486 50.9667 96.7253C50.1758 96.4021 49.5023 95.9615 48.9475 95.4052C48.3927 94.8489 47.9702 94.2055 47.6815 93.4763C47.3929 92.7471 47.2485 91.9833 47.2485 91.1865C47.2485 90.0513 47.5026 89.0169 48.0123 88.0833C48.522 87.1496 49.2557 86.3949 50.2134 85.8205C51.1711 85.2447 52.3273 84.9575 53.6819 84.9575C55.0366 84.9575 56.1883 85.2417 57.1385 85.8115C58.0887 86.3798 58.8148 87.1256 59.317 88.0457C59.8192 88.9673 60.0703 89.9671 60.0703 91.0451C60.0703 91.2541 60.0582 91.4616 60.0357 91.6631C60.0131 91.8645 59.9936 92.0404 59.9785 92.1908H51.126C51.1711 92.708 51.32 93.1455 51.5711 93.4988C51.8221 93.8536 52.1454 94.1243 52.5408 94.3092C52.9362 94.4941 53.3542 94.5873 53.7962 94.5873C54.3435 94.5873 54.8577 94.458 55.3358 94.1994C55.8154 93.9409 56.1462 93.592 56.3281 93.15L59.4313 94.0175C59.1261 94.6415 58.6976 95.1917 58.1428 95.6714C57.588 96.151 56.934 96.5268 56.1807 96.8005C55.4275 97.0741 54.5946 97.2109 53.6819 97.2109ZM51.0358 89.9551H56.2379C56.1777 89.477 56.0319 89.059 55.8049 88.7042C55.5763 88.3494 55.2726 88.0727 54.8923 87.8773C54.5119 87.6818 54.0939 87.5841 53.6368 87.5841C53.1798 87.5841 52.7438 87.6818 52.3709 87.8773C51.998 88.0743 51.6973 88.3494 51.4703 88.7042C51.2418 89.0605 51.0975 89.477 51.0373 89.9551" fill="#F9F7F4"></path><path d="M61.6895 80.3271H65.3399V92.7354C65.3399 93.2376 65.4316 93.5969 65.6135 93.8089C65.7955 94.0224 66.0541 94.1291 66.3894 94.1291C66.6179 94.1291 66.8494 94.0946 67.0855 94.0269C67.3215 93.9577 67.5305 93.8781 67.7124 93.7879L68.192 96.5257C67.735 96.7392 67.2102 96.9061 66.6179 97.0279C66.024 97.1496 65.4692 97.2113 64.952 97.2113C63.9176 97.2113 63.1148 96.9331 62.5449 96.3769C61.9751 95.8206 61.6895 95.0327 61.6895 94.0119V80.3271Z" fill="#F9F7F4"></path><path d="M68.6251 93.4558C68.6251 92.6769 68.8461 91.9944 69.2866 91.411C69.7272 90.8262 70.3361 90.3646 71.1119 90.0278C71.8877 89.691 72.7777 89.5211 73.7806 89.5211C74.2677 89.5211 74.7458 89.5632 75.2179 89.6459C75.6885 89.7301 76.0989 89.8474 76.4493 89.9992V89.476C76.4493 88.8431 76.2508 88.3589 75.8554 88.0206C75.46 87.6824 74.8586 87.5125 74.0527 87.5125C73.3836 87.5125 72.7552 87.6267 72.1703 87.8553C71.5855 88.0838 70.9645 88.4101 70.3105 88.8355L69.2145 86.5081C70.0053 85.9909 70.8307 85.603 71.6907 85.3444C72.5492 85.0858 73.4588 84.9565 74.4165 84.9565C76.2117 84.9565 77.6069 85.3775 78.6022 86.2195C79.5975 87.0614 80.0967 88.2808 80.0967 89.876V92.9386C80.0967 93.2964 80.1538 93.546 80.2681 93.6873C80.3824 93.8286 80.5838 93.9143 80.8725 93.9444V96.9784C80.5688 97.0386 80.2831 97.0852 80.017 97.1152C79.7509 97.1453 79.5194 97.1603 79.3209 97.1603C78.6368 97.1603 78.1151 97.0235 77.7573 96.7499C77.3995 96.4762 77.1754 96.1034 77.0837 95.6313L77.0161 95.1066C76.4838 95.7907 75.8494 96.3124 75.1111 96.6687C74.3729 97.0265 73.6017 97.2054 72.7958 97.2054C71.9899 97.2054 71.2938 97.0401 70.6623 96.7108C70.0309 96.3815 69.5332 95.932 69.1679 95.3622C68.8025 94.7923 68.6206 94.1549 68.6206 93.4512M75.8749 93.8782C76.0418 93.7459 76.1786 93.6001 76.2854 93.4392C76.3921 93.2783 76.4447 93.1235 76.4447 92.9776V91.9448C76.141 91.8275 75.8012 91.7358 75.4299 91.6696C75.057 91.6035 74.7112 91.5704 74.3925 91.5704C73.7234 91.5704 73.1686 91.7132 72.7266 91.9989C72.2846 92.2845 72.0651 92.6619 72.0651 93.131C72.0651 93.3941 72.1418 93.6362 72.2936 93.8557C72.4455 94.0752 72.6545 94.2511 72.9206 94.3834C73.1867 94.5157 73.5024 94.5819 73.8678 94.5819C74.2331 94.5819 74.5985 94.5157 74.9638 94.3834C75.3292 94.2511 75.6329 94.0827 75.8764 93.8782" fill="#F9F7F4"></path><path d="M86.2369 99.4227C86.9661 99.5069 87.7314 99.3701 88.5342 99.0168C89.3356 98.662 90.134 98.1839 90.9263 97.5795C91.7186 96.9751 92.4944 96.2714 93.2552 95.4701C94.016 94.6687 94.7196 93.8598 95.3646 93.0465C96.0096 92.2346 96.5884 91.4468 97.0996 90.686C97.6093 89.9252 98.0212 89.2637 98.334 88.7014C98.5009 88.3887 98.6978 88.2007 98.9278 88.1391C99.1564 88.0774 99.3548 88.0925 99.5217 88.1857C99.6886 88.2789 99.7969 88.4413 99.8495 88.6698C99.9006 88.8998 99.8435 89.1599 99.6781 89.4516C98.573 91.328 97.4274 93.063 96.2396 94.6567C95.0518 96.2504 93.8265 97.611 92.5666 98.7356C91.3052 99.8603 90.0137 100.71 88.6906 101.283C87.3675 101.855 86.0069 102.058 84.6116 101.893C83.7156 101.809 82.9804 101.513 82.4075 101.001C81.8347 100.492 81.3957 99.8347 81.095 99.0318C80.7928 98.229 80.6154 97.3073 80.5643 96.2654C80.5116 95.2235 80.5703 94.12 80.7357 92.9517C80.9236 91.534 81.2559 90.0756 81.7355 88.5751C82.2151 87.0746 82.7924 85.6162 83.4705 84.1984C84.1471 82.7822 84.9183 81.4681 85.7844 80.2593C86.6489 79.0505 87.5705 78.0402 88.5508 77.2268C89.5295 76.4134 90.5459 75.8406 91.5983 75.5083C92.6508 75.1745 93.7077 75.1851 94.7707 75.5399C95.4382 75.7489 95.9118 76.2014 96.193 76.899C96.4741 77.5966 96.6155 78.4311 96.6155 79.3993C96.6155 80.3676 96.5012 81.426 96.2712 82.5732C96.0411 83.7188 95.7495 84.8555 95.3961 85.9801C95.0413 87.1047 94.6459 88.1737 94.2084 89.184C93.7709 90.1944 93.3439 91.0543 92.9274 91.7625C92.8026 91.9504 92.5531 92.0331 92.1772 92.0121C91.8028 91.991 91.442 91.8873 91.0992 91.6993C90.7549 91.5114 90.4948 91.2663 90.3174 90.9641C90.14 90.6619 90.1971 90.3342 90.4888 89.9793C90.6962 89.7087 90.9774 89.2186 91.3322 88.5104C91.687 87.8023 92.0509 86.9934 92.4268 86.0883C92.8011 85.1817 93.1454 84.233 93.4582 83.2437C93.7709 82.2544 93.9889 81.3418 94.1152 80.5089C94.24 79.676 94.24 78.9874 94.1152 78.4461C93.9904 77.9049 93.6777 77.6132 93.177 77.5711C92.6763 77.55 92.108 77.8372 91.4736 78.4311C90.8376 79.025 90.1866 79.8173 89.5205 80.8066C88.853 81.7959 88.202 82.9325 87.5675 84.2135C86.9315 85.4944 86.3587 86.813 85.8475 88.1677C85.3363 89.5223 84.9198 90.8559 84.5966 92.1684C84.2734 93.481 84.102 94.6582 84.0809 95.7001C84.0599 96.742 84.2162 97.602 84.55 98.2786C84.8838 98.9567 85.4461 99.337 86.2384 99.4197" fill="#9AEA28"></path><path d="M109.932 88.8879C109.995 88.8052 110.114 88.7691 110.291 88.7782C110.469 88.7887 110.636 88.8353 110.792 88.9195C110.948 89.0022 111.073 89.1119 111.166 89.2473C111.259 89.3826 111.265 89.5239 111.181 89.6697C110.786 90.3568 110.332 91.1236 109.822 91.9671C109.311 92.812 108.77 93.6389 108.197 94.4523C107.624 95.2657 107.035 95.9994 106.43 96.6564C105.826 97.3134 105.232 97.7765 104.649 98.0472C104.336 98.193 104.008 98.2396 103.664 98.187C103.32 98.1359 103.007 98.0201 102.726 97.8427C102.445 97.6653 102.204 97.4473 102.007 97.1857C101.809 96.9256 101.699 96.67 101.679 96.4204C101.637 96.0866 101.679 95.628 101.804 95.0447C101.929 94.4613 102.064 93.9306 102.21 93.451C101.96 93.7427 101.694 94.081 101.413 94.4674C101.132 94.8537 100.824 95.2642 100.492 95.7017C100.158 96.1392 99.8089 96.5767 99.4436 97.0143C99.0782 97.4518 98.6978 97.8592 98.3024 98.2336C98.1145 98.4215 97.8288 98.4952 97.4424 98.4531C97.0575 98.411 96.6772 98.3027 96.3013 98.1253C95.9269 97.9479 95.5977 97.7194 95.3165 97.4367C95.0353 97.1556 94.9151 96.8594 94.9572 96.5467C95.0203 95.7543 95.2067 94.9109 95.5195 94.0148C95.8322 93.1187 96.2126 92.2482 96.6606 91.4048C97.1087 90.5613 97.6093 89.7735 98.1611 89.0443C98.7129 88.3151 99.2601 87.7212 99.8029 87.2627C100.198 86.9499 100.564 86.774 100.897 86.7319C101.231 86.6898 101.554 86.7274 101.867 86.8417C102.18 86.9559 102.493 87.1228 102.805 87.3423C103.118 87.5619 103.45 87.7753 103.805 87.9828C104.034 87.7332 104.258 87.4671 104.477 87.186C104.697 86.9048 104.93 86.6282 105.181 86.3576C105.327 86.1696 105.561 86.0975 105.885 86.1396C106.208 86.1817 106.514 86.2959 106.806 86.4838C107.098 86.6718 107.332 86.8958 107.51 87.1559C107.687 87.4175 107.702 87.6611 107.556 87.8911C106.848 89.0999 106.28 90.1734 105.853 91.1116C105.426 92.0497 105.113 92.8421 104.915 93.4871C104.716 94.1336 104.623 94.6237 104.634 94.956C104.644 95.2898 104.722 95.4566 104.868 95.4566C105.285 95.4371 105.921 94.8733 106.775 93.7682C107.629 92.6632 108.681 91.0379 109.932 88.8924M102.336 90.1118C102.399 90.0291 102.429 89.8832 102.429 89.6742C102.429 89.4653 102.393 89.2728 102.32 89.0954C102.246 88.918 102.136 88.8097 101.992 88.7676C101.846 88.7255 101.658 88.8308 101.43 89.0804C100.95 89.5389 100.508 90.0802 100.101 90.7056C99.6947 91.3311 99.3398 91.946 99.0376 92.5504C98.7354 93.1548 98.4904 93.7126 98.3024 94.2223C98.1145 94.7335 98.0213 95.1139 98.0213 95.3634C98.2498 95.1755 98.558 94.8688 98.9429 94.4418C99.3278 94.0148 99.7292 93.5412 100.146 93.0195C100.562 92.4993 100.968 91.9776 101.365 91.4559C101.76 90.9357 102.084 90.4861 102.335 90.1118" fill="#9AEA28"></path><path d="M118.183 90.139C119.267 89.5346 120.163 89.1753 120.871 89.061C121.579 88.9467 122.266 89.0971 122.934 89.5136C122.579 89.6188 122.106 89.8263 121.512 90.139C120.918 90.4517 120.318 90.8066 119.714 91.202C119.109 91.5974 118.568 91.9838 118.088 92.3582C117.609 92.734 117.317 93.0257 117.213 93.2332C117.088 93.4828 116.886 93.8271 116.604 94.2646C116.323 94.7021 115.983 95.1606 115.588 95.6403C115.193 96.1199 114.77 96.5995 114.322 97.0776C113.874 97.5572 113.42 97.9631 112.963 98.2969C112.546 98.5886 112.139 98.781 111.744 98.8758C111.348 98.969 110.972 98.8908 110.619 98.6412C110.224 98.3495 110.03 98.0158 110.04 97.6414C110.051 97.267 110.175 96.8701 110.415 96.4536C110.654 96.0372 110.987 95.6207 111.414 95.2027C111.841 94.7863 112.268 94.3803 112.695 93.9834C113.122 93.588 113.528 93.2287 113.915 92.9054C114.3 92.5822 114.576 92.3176 114.743 92.1086C114.889 91.9206 115.029 91.6665 115.166 91.3433C115.301 91.02 115.405 90.6923 115.478 90.3585C115.55 90.0247 115.588 89.718 115.588 89.4369C115.588 89.1557 115.525 88.9738 115.4 88.8896C114.775 89.0354 114.128 89.494 113.462 90.2653C112.795 91.0366 112.15 91.9687 111.524 93.0633C110.899 94.1578 110.3 95.3456 109.726 96.6265C109.153 97.9075 108.637 99.1329 108.179 100.3C107.72 101.466 107.34 102.508 107.038 103.425C106.735 104.342 106.533 104.989 106.429 105.363C106.366 105.592 106.179 105.717 105.866 105.738C105.554 105.759 105.226 105.706 104.882 105.581C104.537 105.457 104.246 105.273 104.007 105.034C103.768 104.793 103.7 104.529 103.804 104.237C103.971 103.779 104.241 103.064 104.617 102.096C104.991 101.126 105.42 100.038 105.898 98.8292C106.378 97.6203 106.887 96.3439 107.43 94.9998C107.973 93.6557 108.493 92.3642 108.994 91.1238C109.494 89.8834 109.953 88.7588 110.369 87.7485C110.786 86.7381 111.109 85.9623 111.339 85.4196C111.422 85.17 111.616 85.0392 111.918 85.0287C112.22 85.0181 112.522 85.0708 112.825 85.185C113.127 85.2993 113.382 85.4511 113.59 85.6376C113.797 85.8255 113.861 86.0029 113.778 86.1683C113.673 86.3773 113.569 86.6058 113.465 86.8554C113.361 87.105 113.226 87.4598 113.059 87.9184C113.267 87.7515 113.471 87.6011 113.668 87.4658C113.867 87.3305 114.063 87.2268 114.262 87.1531C114.46 87.0809 114.674 87.0388 114.902 87.0283C115.131 87.0178 115.393 87.0644 115.684 87.1696C116.185 87.3365 116.601 87.4778 116.935 87.5921C117.269 87.7064 117.529 87.8582 117.717 88.0447C117.905 88.2326 118.034 88.4822 118.108 88.7949C118.18 89.1076 118.207 89.5557 118.186 90.139" fill="#9AEA28"></path><path d="M130.187 89.3569C130.479 89.3148 130.812 89.3884 131.187 89.5764C131.561 89.7643 131.832 89.9312 132 90.077C131.917 90.1612 131.859 90.2078 131.829 90.2184C131.797 90.2289 131.761 90.2289 131.719 90.2184C131.677 90.2078 131.62 90.1928 131.547 90.1717C131.474 90.1507 131.376 90.1507 131.25 90.1717C130.937 90.2349 130.479 90.4379 129.874 90.7807C129.27 91.125 128.644 91.5099 127.999 91.9368C127.353 92.3638 126.754 92.7818 126.201 93.1877C125.649 93.5937 125.29 93.8914 125.123 94.0793C125.227 94.2462 125.331 94.4026 125.436 94.5484C125.54 94.6942 125.643 94.8506 125.749 95.0175C126.061 95.5798 126.197 96.1421 126.154 96.7059C126.112 97.2682 125.941 97.8155 125.639 98.3477C125.337 98.8784 124.935 99.3746 124.436 99.8331C123.935 100.292 123.405 100.677 122.842 100.989C122.468 101.197 122.045 101.349 121.576 101.442C121.107 101.535 120.649 101.567 120.201 101.535C119.753 101.504 119.336 101.415 118.95 101.269C118.565 101.123 118.263 100.91 118.043 100.628C117.824 100.347 117.709 100.009 117.699 99.6121C117.688 99.2167 117.84 98.7582 118.151 98.2364C118.631 97.4441 119.25 96.7044 120.011 96.0173C120.772 95.3287 121.548 94.6837 122.34 94.0793C121.966 93.5381 121.584 93.0224 121.199 92.5322C120.813 92.0421 120.548 91.4963 120.402 90.8904C120.277 90.3492 120.252 89.8019 120.324 89.2486C120.396 88.6968 120.548 88.1706 120.777 87.67C121.005 87.1693 121.303 86.7062 121.668 86.2792C122.032 85.8522 122.444 85.4824 122.902 85.1697C123.131 85.0238 123.403 84.9562 123.716 84.9667C124.029 84.9772 124.341 85.0343 124.654 85.1381C124.967 85.2433 125.252 85.3681 125.514 85.5124C125.774 85.6583 125.977 85.7831 126.123 85.8883C126.664 85.0133 127.139 84.3623 127.545 83.9353C127.951 83.5083 128.28 83.1805 128.53 82.9505C128.676 82.8468 128.874 82.8723 129.124 83.0287C129.373 83.1851 129.608 83.394 129.828 83.6541C130.047 83.9142 130.212 84.1804 130.328 84.451C130.442 84.7216 130.427 84.9095 130.282 85.0133C129.948 85.2433 129.552 85.6072 129.094 86.1078C128.635 86.6085 128.208 87.1392 127.813 87.703C127.417 88.2653 127.109 88.8126 126.891 89.3433C126.672 89.8741 126.636 90.3071 126.781 90.6408C126.676 90.6829 126.536 90.6724 126.359 90.6093C126.182 90.5476 126.004 90.4529 125.828 90.3281C125.651 90.2033 125.488 90.0424 125.344 89.844C125.198 89.647 125.095 89.4335 125.031 89.2035C124.989 89.0366 124.989 88.8442 125.031 88.6262C125.073 88.4067 125.125 88.1932 125.188 87.9857C125.251 87.7767 125.323 87.5797 125.407 87.3918C125.49 87.2039 125.553 87.058 125.595 86.9543C125.2 86.9332 124.83 87.1467 124.486 87.5948C124.141 88.0428 123.886 88.5796 123.72 89.205C123.553 89.8305 123.49 90.4815 123.532 91.158C123.575 91.8361 123.793 92.4029 124.189 92.8615C124.585 92.6119 125.049 92.2992 125.58 91.9233C126.111 91.5489 126.648 91.1791 127.19 90.8137C127.732 90.4499 128.268 90.1312 128.801 89.8605C129.331 89.5899 129.796 89.423 130.191 89.3599M120.094 99.5821C120.386 99.561 120.734 99.4001 121.142 99.0979C121.548 98.7957 121.924 98.4364 122.266 98.0199C122.611 97.6035 122.881 97.1765 123.08 96.739C123.278 96.3015 123.314 95.9466 123.19 95.676C122.543 96.2804 121.934 96.8908 121.361 97.5042C120.789 98.1192 120.366 98.8123 120.095 99.5836" fill="#9AEA28"></path><path d="M12.7766 96.9827V87.3319L9.28553 94.3592H7.23176L3.74217 87.3319V96.9827H0V80.7842H4.06092L8.25865 89.2488L12.4804 80.7842H16.5173V96.9827H12.7766Z" fill="#F9F7F4"></path><mask id="mask0_440_1752" style="mask-type:luminance" maskUnits="userSpaceOnUse" x="47" y="16" width="39" height="54"><path d="M63.2517 16.8879C58.9667 21.3217 56.059 24.2715 53.9721 26.3524C53.7511 26.5734 53.3662 26.9553 52.9227 27.5386C50.8675 30.2389 49.9669 34.0547 50.8238 37.6195C50.9426 38.1096 51.1321 38.7591 51.4553 39.5033C51.6899 40.0461 52.404 40.1769 52.822 39.7589C56.2965 36.2844 59.7726 32.8083 63.2471 29.3338C63.5764 29.0045 64.1071 29.006 64.4379 29.3338C64.7717 29.6645 65.0994 30.0013 65.3656 30.3276C65.7715 30.8267 66.1068 31.4777 66.2165 31.8386C66.3473 32.2671 66.648 33.306 66.1985 34.4471C65.9624 35.047 65.6061 35.4545 65.3716 35.683C59.5862 41.4699 53.7992 47.2553 48.0123 53.0422C47.6831 53.3715 47.6831 53.9037 48.0123 54.233C49.6767 55.8974 51.341 57.5617 53.0069 59.2276C53.3362 59.5568 53.8684 59.5568 54.1977 59.2276L71.7313 41.6939C72.1147 41.2714 72.5627 40.7001 72.9627 39.9664C73.0228 39.8567 73.0799 39.7469 73.1326 39.6402C73.3897 39.1215 74.0752 39.0027 74.4842 39.4131C74.8495 39.7785 75.2164 40.1453 75.5817 40.5107C75.6028 40.5317 75.6238 40.5543 75.6434 40.5783C76.12 41.1542 76.347 41.706 76.4583 42.0487C76.5831 42.4321 76.9183 43.5192 76.4583 44.7174C76.2688 45.2091 76.0057 45.5654 75.8148 45.7849C75.7998 45.8014 75.7862 45.8165 75.7712 45.8315C69.9722 51.629 64.1748 57.4279 58.3774 63.2253C58.0526 63.5501 58.0481 64.0763 58.3683 64.4071C60.0177 66.1075 61.667 67.8065 63.3163 69.5069C63.6441 69.8452 64.1883 69.8482 64.5191 69.5129C70.6127 63.3531 76.7063 57.1934 82.8 51.0336C83.1518 50.7043 83.6164 50.2202 84.0779 49.5737C85.9738 46.9185 85.9979 44.0619 85.9934 43.2094C85.9768 40.1739 84.7199 37.9728 84.1922 37.0737C83.8314 36.4588 83.5141 35.9852 82.7338 35.0666C81.9776 34.175 71.0021 23.4145 64.4514 16.8774C64.2876 16.7135 64.0726 16.6323 63.8591 16.6323C63.6456 16.6323 63.417 16.718 63.2517 16.8894" fill="white"></path></mask><g mask="url(#mask0_440_1752)"><path d="M66.8414 -2.52498L21.0781 43.2383L66.8414 89.0015L112.605 43.2383L66.8414 -2.52498Z" fill="url(#paint0_linear_440_1752)"></path></g><mask id="mask1_440_1752" style="mask-type:luminance" maskUnits="userSpaceOnUse" x="39" y="0" width="50" height="52"><path d="M63.2021 0.248074C56.8453 6.63488 50.4886 13.0202 44.1319 19.407C44.1078 19.4311 44.0868 19.4551 44.0657 19.4822C43.093 20.715 41.833 22.5598 40.8122 25.009C38.3946 30.8079 39.008 35.9559 39.2606 37.8728C39.4816 39.5447 40.2002 43.7514 42.9561 48.2273C43.6177 49.3023 44.2807 50.2044 44.8641 50.9291C45.1783 51.32 45.7616 51.3531 46.1165 50.9982L51.081 46.0337C51.3922 45.7225 51.4102 45.2248 51.1246 44.8896C50.8554 44.5738 50.5578 44.1965 50.2556 43.7574C47.4335 39.6484 47.6846 35.1199 47.7462 33.9953C48.1266 27.1394 52.9438 22.7718 53.9737 21.8802C53.9887 21.8667 54.0037 21.8532 54.0173 21.8381L63.1855 12.6278C63.5148 12.297 64.0485 12.2955 64.3778 12.6263C64.8724 13.1209 65.3911 13.6456 65.9294 14.1929C65.9354 14.1869 65.9414 14.1809 65.9474 14.1749C72.4019 20.6293 84.0539 32.0498 84.8342 32.9684C85.6145 33.8871 85.9303 34.3607 86.2926 34.9756C86.8203 35.8747 88.0787 38.0758 88.0938 41.1113C88.0938 41.1895 88.0938 41.2842 88.0938 41.394C88.0938 41.397 88.0938 41.4 88.0938 41.4015C88.2862 40.2438 88.9222 36.5948 88.9162 34.8613C88.9072 32.0904 88.3328 29.9359 88.1629 29.1932C87.3616 25.7141 85.9739 23.1837 85.1469 21.8487C85.1439 21.8441 85.1409 21.8396 85.1379 21.8351C84.502 20.8112 83.7487 19.8671 82.9022 19.0101C76.7349 12.7571 70.5676 6.50408 64.4018 0.251084C64.2365 0.0841972 64.02 0 63.802 0C63.584 0 63.369 0.0826908 63.2051 0.248074" fill="white"></path></mask><g mask="url(#mask1_440_1752)"><path d="M63.6569 -25.2647L12.7184 25.6738L63.6569 76.6124L114.596 25.6738L63.6569 -25.2647Z" fill="url(#paint1_linear_440_1752)"></path></g><defs><linearGradient id="paint0_linear_440_1752" x1="99.7762" y1="10.9573" x2="54.2693" y2="56.4641" gradientUnits="userSpaceOnUse"><stop stop-color="#2ACC47"></stop><stop offset="1" stop-color="#AFF022"></stop></linearGradient><linearGradient id="paint1_linear_440_1752" x1="89.3346" y1="0.521859" x2="43.8277" y2="46.0287" gradientUnits="userSpaceOnUse"><stop stop-color="#2ACC47"></stop><stop offset="1" stop-color="#AFF022"></stop></linearGradient></defs></svg>