<svg xmlns="http://www.w3.org/2000/svg" width="188" height="38" viewBox="0 0 188 38" fill="none"><path d="M69.3656 27.9159C68.2381 27.9159 67.2336 27.733 66.3505 27.3688C65.4675 27.0046 64.7224 26.5073 64.1171 25.877C63.5117 25.2467 63.0527 24.5267 62.7417 23.7134C62.4307 22.9002 62.2744 22.047 62.2744 21.1523C62.2744 20.2576 62.4291 19.3779 62.7417 18.5663C63.0527 17.7547 63.5117 17.033 64.1171 16.4027C64.7224 15.7724 65.4675 15.2751 66.3505 14.9109C67.2336 14.5467 68.2398 14.3638 69.3656 14.3638C70.4915 14.3638 71.4943 14.5467 72.3691 14.9109C73.2439 15.2751 73.9839 15.7724 74.5893 16.4027C75.1946 17.033 75.657 17.7531 75.9779 18.5663C76.2972 19.3779 76.4569 20.241 76.4569 21.1523C76.4569 22.0637 76.2972 22.9002 75.9779 23.7134C75.6586 24.525 75.1963 25.2467 74.5893 25.877C73.9839 26.5073 73.2439 27.0046 72.3691 27.3688C71.4943 27.733 70.4932 27.9159 69.3656 27.9159ZM66.4137 21.1523C66.4137 21.8225 66.5435 22.4096 66.8046 22.9168C67.0656 23.4224 67.4149 23.8149 67.8523 24.0926C68.2897 24.3703 68.7936 24.5084 69.3673 24.5084C69.9411 24.5084 70.4233 24.3653 70.869 24.0793C71.3147 23.7932 71.664 23.3974 71.9168 22.8902C72.1695 22.3846 72.2959 21.8042 72.2959 21.1507C72.2959 20.4971 72.1695 19.8934 71.9168 19.3862C71.664 18.8789 71.3147 18.4881 70.869 18.2104C70.4233 17.9327 69.9228 17.7946 69.3673 17.7946C68.8119 17.7946 68.2897 17.9327 67.8523 18.2104C67.4149 18.4881 67.0656 18.8806 66.8046 19.3862C66.5435 19.8917 66.4137 20.4805 66.4137 21.1507" fill="#F9F7F4"></path><path d="M77.6926 21.1277C77.6926 19.8521 77.9454 18.703 78.4493 17.6835C78.9532 16.6641 79.6434 15.8558 80.5181 15.2588C81.3929 14.6618 82.4024 14.3641 83.5466 14.3641C84.4712 14.3641 85.3127 14.5869 86.0694 15.0326C86.8261 15.4783 87.3982 16.0637 87.7857 16.7855V9.24023H91.8235V23.1699C91.8235 23.574 91.8901 23.8551 92.0264 24.0147C92.1611 24.1744 92.379 24.2709 92.6833 24.3041V27.6601C91.9765 27.7948 91.4045 27.8614 90.9671 27.8614C90.2769 27.8614 89.7181 27.71 89.2891 27.4074C88.86 27.1047 88.5956 26.6839 88.4941 26.1451L88.4176 25.4633C87.947 26.2881 87.3067 26.9018 86.5001 27.3059C85.6919 27.71 84.8421 27.9113 83.9507 27.9113C83.0593 27.9113 82.2045 27.7416 81.4395 27.4024C80.6745 27.0631 80.0092 26.5858 79.4455 25.9721C78.8817 25.3585 78.4493 24.6367 78.1466 23.8085C77.844 22.9803 77.6926 22.0839 77.6926 21.1227M87.8123 22.7159V20.0218C87.6443 19.5811 87.4032 19.1969 87.0938 18.8709C86.7828 18.545 86.4286 18.2822 86.0345 18.0876C85.6387 17.8914 85.2395 17.7933 84.8354 17.7933C84.398 17.7933 83.9989 17.8831 83.6364 18.0627C83.2738 18.2423 82.9595 18.4918 82.6901 18.8094C82.4207 19.1287 82.2145 19.4913 82.0714 19.9004C81.9284 20.3078 81.8569 20.7419 81.8569 21.1975C81.8569 21.6532 81.9367 22.1089 82.0964 22.508C82.256 22.9088 82.4789 23.2597 82.7649 23.5607C83.051 23.8634 83.3869 24.0962 83.7744 24.2592C84.1619 24.4222 84.5826 24.5037 85.0366 24.5037C85.3227 24.5037 85.6004 24.4588 85.8698 24.369C86.1392 24.2792 86.3953 24.1611 86.6398 24.0131C86.8843 23.8667 87.1071 23.6788 87.3084 23.4493C87.5096 23.2198 87.6776 22.9753 87.8139 22.7142" fill="#F9F7F4"></path><path d="M101.288 27.9161C100.16 27.9161 99.1592 27.7365 98.2845 27.379C97.4097 27.0214 96.6647 26.5341 96.051 25.9188C95.4373 25.3035 94.97 24.5917 94.6507 23.7851C94.3314 22.9786 94.1718 22.1337 94.1718 21.2523C94.1718 19.9967 94.4528 18.8525 95.0166 17.8198C95.5803 16.787 96.3919 15.9522 97.4513 15.3169C98.5106 14.6799 99.7895 14.3623 101.288 14.3623C102.786 14.3623 104.06 14.6766 105.111 15.3069C106.162 15.9355 106.966 16.7604 107.521 17.7782C108.076 18.7977 108.354 19.9036 108.354 21.096C108.354 21.3271 108.341 21.5567 108.316 21.7795C108.291 22.0023 108.269 22.1969 108.253 22.3632H98.4607C98.5106 22.9353 98.6753 23.4193 98.953 23.8101C99.2307 24.2026 99.5883 24.5019 100.026 24.7065C100.463 24.911 100.925 25.0141 101.414 25.0141C102.02 25.0141 102.588 24.8711 103.117 24.5851C103.648 24.299 104.014 23.9132 104.215 23.4242L107.647 24.3838C107.31 25.074 106.836 25.6827 106.222 26.2132C105.609 26.7437 104.885 27.1595 104.052 27.4621C103.219 27.7648 102.297 27.9161 101.288 27.9161ZM98.361 19.8903H104.115C104.049 19.3614 103.887 18.8991 103.636 18.5066C103.383 18.1141 103.047 17.8081 102.627 17.5919C102.206 17.3758 101.744 17.2677 101.238 17.2677C100.732 17.2677 100.25 17.3758 99.8377 17.5919C99.4253 17.8098 99.0927 18.1141 98.8416 18.5066C98.5888 18.9008 98.4291 19.3614 98.3626 19.8903" fill="#F9F7F4"></path><path d="M110.145 9.24023H114.183V22.9654C114.183 23.5208 114.285 23.9183 114.486 24.1528C114.687 24.3889 114.973 24.507 115.344 24.507C115.597 24.507 115.853 24.4688 116.114 24.3939C116.375 24.3174 116.606 24.2293 116.807 24.1295L117.338 27.1579C116.832 27.3941 116.252 27.5787 115.597 27.7134C114.94 27.8481 114.326 27.9162 113.754 27.9162C112.61 27.9162 111.722 27.6086 111.092 26.9933C110.461 26.3779 110.145 25.5065 110.145 24.3773V9.24023Z" fill="#F9F7F4"></path><path d="M117.817 23.762C117.817 22.9006 118.061 22.1456 118.549 21.5003C119.036 20.8534 119.709 20.3428 120.568 19.9703C121.426 19.5978 122.41 19.4099 123.519 19.4099C124.058 19.4099 124.587 19.4564 125.109 19.5479C125.63 19.641 126.084 19.7707 126.471 19.9387V19.36C126.471 18.6598 126.252 18.1243 125.814 17.7501C125.377 17.3759 124.712 17.188 123.82 17.188C123.08 17.188 122.385 17.3144 121.738 17.5672C121.091 17.82 120.405 18.1809 119.681 18.6515L118.469 16.0771C119.344 15.505 120.257 15.076 121.208 14.7899C122.157 14.5039 123.164 14.3608 124.223 14.3608C126.209 14.3608 127.752 14.8265 128.853 15.7578C129.954 16.6891 130.506 18.0378 130.506 19.8023V23.19C130.506 23.5858 130.569 23.8618 130.696 24.0182C130.822 24.1745 131.045 24.2693 131.364 24.3025V27.6586C131.028 27.7251 130.712 27.7766 130.418 27.8099C130.123 27.8432 129.867 27.8598 129.648 27.8598C128.891 27.8598 128.314 27.7085 127.918 27.4058C127.522 27.1031 127.275 26.6907 127.173 26.1685L127.098 25.5881C126.51 26.3448 125.808 26.9218 124.991 27.316C124.175 27.7118 123.322 27.9097 122.43 27.9097C121.539 27.9097 120.769 27.7268 120.07 27.3625C119.372 26.9983 118.821 26.5011 118.417 25.8708C118.013 25.2405 117.812 24.5354 117.812 23.7571M125.836 24.2294C126.021 24.083 126.172 23.9217 126.29 23.7438C126.408 23.5658 126.466 23.3945 126.466 23.2332V22.0907C126.13 21.961 125.755 21.8595 125.344 21.7863C124.931 21.7132 124.549 21.6766 124.196 21.6766C123.456 21.6766 122.843 21.8346 122.354 22.1506C121.865 22.4665 121.622 22.884 121.622 23.4028C121.622 23.6939 121.707 23.9616 121.875 24.2044C122.043 24.4472 122.274 24.6418 122.568 24.7881C122.863 24.9345 123.212 25.0077 123.616 25.0077C124.02 25.0077 124.424 24.9345 124.828 24.7881C125.232 24.6418 125.568 24.4555 125.838 24.2294" fill="#F9F7F4"></path><path d="M137.298 30.3625C138.104 30.4556 138.951 30.3042 139.839 29.9134C140.725 29.521 141.608 28.9921 142.485 28.3236C143.361 27.655 144.219 26.8767 145.061 25.9903C145.902 25.1039 146.681 24.2092 147.394 23.3095C148.108 22.4114 148.748 21.54 149.313 20.6985C149.877 19.857 150.333 19.1252 150.679 18.5033C150.863 18.1574 151.081 17.9495 151.336 17.8813C151.588 17.8131 151.808 17.8297 151.993 17.9328C152.177 18.036 152.297 18.2156 152.355 18.4683C152.412 18.7228 152.348 19.0105 152.165 19.3331C150.943 21.4086 149.676 23.3278 148.362 25.0906C147.048 26.8534 145.693 28.3585 144.299 29.6024C142.904 30.8464 141.475 31.786 140.012 32.4196C138.548 33.0533 137.043 33.2778 135.5 33.0948C134.509 33.0017 133.696 32.6741 133.062 32.1087C132.428 31.5449 131.943 30.8181 131.61 29.9301C131.276 29.042 131.08 28.0225 131.023 26.8701C130.965 25.7176 131.03 24.4969 131.213 23.2047C131.421 21.6365 131.788 20.0233 132.319 18.3636C132.849 16.7038 133.488 15.0907 134.238 13.5224C134.986 11.9559 135.839 10.5023 136.797 9.16526C137.754 7.82817 138.773 6.7106 139.857 5.81089C140.94 4.91119 142.064 4.27757 143.228 3.91003C144.392 3.54084 145.562 3.55248 146.737 3.94496C147.476 4.17612 148 4.6767 148.311 5.44835C148.622 6.22001 148.778 7.143 148.778 8.214C148.778 9.285 148.651 10.4558 148.397 11.7247C148.143 12.9919 147.82 14.2492 147.429 15.4931C147.037 16.7371 146.599 17.9195 146.115 19.0371C145.631 20.1547 145.159 21.1059 144.698 21.8892C144.56 22.0971 144.284 22.1886 143.869 22.1653C143.454 22.142 143.055 22.0273 142.676 21.8194C142.295 21.6115 142.008 21.3404 141.811 21.0062C141.615 20.6719 141.678 20.3093 142.001 19.9169C142.23 19.6175 142.541 19.0754 142.934 18.2921C143.326 17.5088 143.729 16.614 144.145 15.6129C144.559 14.6101 144.94 13.5607 145.285 12.4664C145.631 11.3721 145.873 10.3627 146.012 9.44133C146.15 8.52 146.15 7.75832 146.012 7.15962C145.874 6.56093 145.528 6.23829 144.974 6.19173C144.421 6.16845 143.792 6.48609 143.09 7.143C142.387 7.7999 141.667 8.67632 140.93 9.77061C140.192 10.8649 139.471 12.1222 138.77 13.5391C138.066 14.956 137.433 16.4145 136.867 17.9129C136.302 19.4113 135.841 20.8864 135.483 22.3383C135.126 23.7901 134.936 25.0923 134.913 26.2448C134.89 27.3972 135.063 28.3485 135.432 29.0969C135.801 29.8469 136.423 30.2677 137.299 30.3591" fill="#9AEA28"></path><path d="M163.507 18.7096C163.577 18.6182 163.709 18.5783 163.905 18.5882C164.101 18.5999 164.286 18.6514 164.459 18.7446C164.632 18.836 164.77 18.9574 164.873 19.1071C164.976 19.2568 164.983 19.4131 164.889 19.5744C164.452 20.3344 163.95 21.1826 163.386 22.1156C162.821 23.0502 162.222 23.9649 161.588 24.8646C160.955 25.7643 160.303 26.5758 159.634 27.3026C158.966 28.0294 158.309 28.5416 157.664 28.8409C157.318 29.0022 156.955 29.0538 156.574 28.9956C156.193 28.939 155.847 28.811 155.536 28.6147C155.225 28.4185 154.959 28.1774 154.742 27.888C154.522 27.6003 154.401 27.3176 154.379 27.0415C154.332 26.6723 154.379 26.1651 154.517 25.5198C154.655 24.8746 154.805 24.2875 154.966 23.757C154.69 24.0796 154.396 24.4538 154.085 24.8812C153.774 25.3086 153.433 25.7626 153.065 26.2466C152.696 26.7305 152.31 27.2145 151.906 27.6984C151.502 28.1824 151.081 28.633 150.644 29.0471C150.436 29.255 150.12 29.3365 149.693 29.2899C149.267 29.2434 148.846 29.1236 148.43 28.9274C148.016 28.7312 147.652 28.4784 147.341 28.1657C147.03 27.8547 146.897 27.5271 146.944 27.1812C147.013 26.3048 147.22 25.3718 147.565 24.3806C147.911 23.3894 148.332 22.4265 148.828 21.4936C149.323 20.5606 149.877 19.6892 150.487 18.8826C151.098 18.076 151.703 17.4191 152.304 16.9119C152.741 16.566 153.145 16.3714 153.514 16.3248C153.883 16.2783 154.241 16.3198 154.587 16.4462C154.933 16.5726 155.279 16.7572 155.625 17C155.971 17.2428 156.338 17.479 156.731 17.7085C156.983 17.4324 157.231 17.1381 157.474 16.8271C157.717 16.5161 157.974 16.2101 158.252 15.9107C158.414 15.7028 158.673 15.623 159.031 15.6696C159.388 15.7162 159.727 15.8425 160.05 16.0504C160.373 16.2583 160.632 16.5061 160.828 16.7938C161.025 17.0832 161.041 17.3526 160.88 17.607C160.097 18.9441 159.468 20.1315 158.996 21.1693C158.523 22.207 158.177 23.0835 157.958 23.7969C157.738 24.512 157.635 25.0542 157.647 25.4217C157.659 25.7909 157.745 25.9755 157.906 25.9755C158.367 25.9539 159.07 25.3302 160.015 24.1079C160.96 22.8856 162.124 21.0878 163.507 18.7146M155.106 20.0634C155.176 19.9719 155.209 19.8106 155.209 19.5794C155.209 19.3482 155.169 19.1354 155.087 18.9391C155.006 18.7429 154.885 18.6232 154.725 18.5766C154.564 18.53 154.356 18.6464 154.103 18.9225C153.572 19.4297 153.083 20.0284 152.633 20.7203C152.184 21.4121 151.791 22.0923 151.457 22.7608C151.123 23.4294 150.852 24.0464 150.644 24.6101C150.436 25.1756 150.333 25.5963 150.333 25.8724C150.586 25.6645 150.927 25.3252 151.352 24.8529C151.778 24.3806 152.222 23.8568 152.683 23.2797C153.143 22.7043 153.592 22.1272 154.031 21.5501C154.469 20.9747 154.826 20.4775 155.104 20.0634" fill="#9AEA28"></path><path d="M172.634 20.0931C173.833 19.4246 174.824 19.0271 175.608 18.9007C176.391 18.7743 177.151 18.9406 177.889 19.4013C177.497 19.5177 176.973 19.7472 176.316 20.0931C175.659 20.439 174.996 20.8315 174.327 21.2689C173.659 21.7063 173.06 22.1337 172.529 22.5478C171.999 22.9635 171.676 23.2862 171.562 23.5157C171.424 23.7917 171.199 24.1726 170.888 24.6565C170.577 25.1405 170.201 25.6477 169.764 26.1782C169.326 26.7087 168.859 27.2392 168.364 27.7681C167.868 28.2986 167.366 28.7476 166.86 29.1168C166.399 29.4394 165.949 29.6523 165.511 29.7571C165.074 29.8602 164.658 29.7737 164.267 29.4976C163.83 29.175 163.616 28.8058 163.627 28.3917C163.639 27.9776 163.777 27.5386 164.041 27.0779C164.306 26.6172 164.675 26.1566 165.147 25.6943C165.62 25.2336 166.092 24.7846 166.564 24.3455C167.036 23.9081 167.485 23.5107 167.913 23.1531C168.339 22.7956 168.645 22.5029 168.829 22.2717C168.99 22.0638 169.145 21.7828 169.297 21.4252C169.446 21.0677 169.561 20.7051 169.642 20.3359C169.722 19.9667 169.764 19.6275 169.764 19.3165C169.764 19.0055 169.694 18.8043 169.556 18.7111C168.864 18.8724 168.149 19.3797 167.412 20.2328C166.674 21.0859 165.96 22.117 165.269 23.3277C164.577 24.5384 163.915 25.8523 163.28 27.2692C162.646 28.6861 162.076 30.0415 161.568 31.332C161.061 32.6225 160.64 33.775 160.306 34.7895C159.972 35.8039 159.747 36.519 159.633 36.9331C159.563 37.1859 159.356 37.3239 159.011 37.3472C158.665 37.3705 158.302 37.3123 157.921 37.1743C157.54 37.0362 157.218 36.8333 156.953 36.5689C156.689 36.3028 156.614 36.0101 156.729 35.6875C156.913 35.1803 157.213 34.3903 157.629 33.3193C158.043 32.2467 158.517 31.0426 159.045 29.7055C159.576 28.3684 160.14 26.9565 160.74 25.4697C161.34 23.983 161.916 22.5544 162.47 21.1824C163.023 19.8104 163.531 18.5664 163.991 17.4489C164.452 16.3313 164.81 15.4732 165.064 14.8728C165.156 14.5967 165.37 14.4521 165.704 14.4404C166.039 14.4288 166.373 14.487 166.707 14.6134C167.041 14.7398 167.324 14.9077 167.554 15.114C167.783 15.3218 167.853 15.5181 167.762 15.701C167.645 15.9322 167.53 16.185 167.416 16.461C167.301 16.7371 167.151 17.1296 166.967 17.6368C167.196 17.4522 167.422 17.2859 167.64 17.1362C167.86 16.9865 168.077 16.8718 168.297 16.7903C168.517 16.7105 168.753 16.6639 169.005 16.6523C169.258 16.6406 169.548 16.6922 169.87 16.8086C170.424 16.9932 170.885 17.1495 171.254 17.2759C171.623 17.4023 171.911 17.5703 172.119 17.7765C172.327 17.9844 172.47 18.2604 172.551 18.6064C172.631 18.9523 172.661 19.4479 172.638 20.0931" fill="#9AEA28"></path><path d="M185.912 19.2284C186.235 19.1819 186.604 19.2634 187.018 19.4712C187.432 19.6791 187.731 19.8637 187.918 20.025C187.826 20.1182 187.761 20.1697 187.728 20.1813C187.693 20.193 187.653 20.193 187.607 20.1813C187.56 20.1697 187.497 20.1531 187.417 20.1298C187.336 20.1065 187.227 20.1065 187.088 20.1298C186.742 20.1996 186.235 20.4242 185.566 20.8033C184.898 21.1842 184.206 21.6099 183.492 22.0822C182.777 22.5545 182.115 23.0168 181.503 23.4659C180.893 23.9149 180.495 24.2442 180.311 24.4521C180.426 24.6367 180.54 24.8096 180.657 24.9709C180.771 25.1322 180.886 25.3052 181.003 25.4898C181.349 26.1118 181.498 26.7338 181.452 27.3574C181.405 27.9794 181.216 28.5847 180.881 29.1734C180.547 29.7605 180.103 30.3093 179.551 30.8165C178.997 31.3238 178.41 31.7495 177.788 32.0954C177.374 32.3249 176.907 32.4929 176.388 32.596C175.869 32.6991 175.362 32.734 174.866 32.6991C174.37 32.6642 173.91 32.5661 173.482 32.4047C173.057 32.2434 172.722 32.0073 172.48 31.6963C172.237 31.3853 172.11 31.0111 172.099 30.5721C172.087 30.1347 172.255 29.6275 172.599 29.0504C173.13 28.174 173.815 27.3557 174.656 26.5957C175.498 25.834 176.356 25.1206 177.233 24.4521C176.818 23.8534 176.396 23.2829 175.97 22.7408C175.543 22.1986 175.25 21.5949 175.089 20.9247C174.951 20.326 174.923 19.7207 175.002 19.1087C175.082 18.4984 175.25 17.9163 175.503 17.3625C175.756 16.8087 176.085 16.2965 176.489 15.8242C176.892 15.3519 177.347 14.9428 177.855 14.5968C178.107 14.4355 178.408 14.3607 178.754 14.3723C179.1 14.384 179.446 14.4472 179.792 14.5619C180.138 14.6783 180.454 14.8164 180.743 14.976C181.031 15.1373 181.255 15.2754 181.417 15.3918C182.015 14.4239 182.541 13.7038 182.99 13.2315C183.439 12.7592 183.803 12.3966 184.079 12.1422C184.241 12.0274 184.46 12.0557 184.736 12.2287C185.012 12.4016 185.272 12.6328 185.515 12.9205C185.757 13.2082 185.94 13.5026 186.068 13.8019C186.195 14.1013 186.178 14.3091 186.017 14.4239C185.648 14.6783 185.21 15.0808 184.703 15.6346C184.196 16.1884 183.723 16.7754 183.286 17.3991C182.849 18.0211 182.508 18.6264 182.267 19.2135C182.024 19.8005 181.984 20.2795 182.145 20.6487C182.029 20.6952 181.874 20.6836 181.678 20.6137C181.482 20.5456 181.285 20.4408 181.091 20.3028C180.895 20.1647 180.715 19.9868 180.555 19.7673C180.394 19.5494 180.279 19.3132 180.209 19.0588C180.163 18.8742 180.163 18.6613 180.209 18.4202C180.256 18.1774 180.313 17.9412 180.382 17.7117C180.452 17.4806 180.532 17.2627 180.625 17.0548C180.717 16.8469 180.786 16.6856 180.833 16.5709C180.396 16.5476 179.987 16.7838 179.606 17.2793C179.225 17.7749 178.942 18.3686 178.759 19.0605C178.575 19.7523 178.505 20.4724 178.551 21.2208C178.598 21.9708 178.839 22.5978 179.278 23.105C179.715 22.8289 180.229 22.483 180.816 22.0672C181.403 21.6531 181.997 21.244 182.598 20.8399C183.196 20.4375 183.79 20.0849 184.379 19.7856C184.966 19.4862 185.48 19.3016 185.917 19.2318M174.748 30.5388C175.071 30.5155 175.456 30.3376 175.907 30.0033C176.356 29.669 176.772 29.2716 177.151 28.8109C177.532 28.3502 177.831 27.8779 178.051 27.394C178.27 26.91 178.31 26.5176 178.172 26.2182C177.457 26.8868 176.784 27.562 176.15 28.2405C175.516 28.9207 175.049 29.6873 174.75 30.5405" fill="#9AEA28"></path><path d="M56.0414 27.6633V16.9882L52.1798 24.7613H49.9081L46.0481 16.9882V27.6633H41.9088V9.74561H46.4007L51.0439 19.1086L55.7138 9.74561H60.179V27.6633H56.0414Z" fill="#F9F7F4"></path><mask id="mask0_440_907" style="mask-type:luminance" maskUnits="userSpaceOnUse" x="4" y="9" width="21" height="28"><path d="M12.475 9.33607C10.2707 11.6169 8.77486 13.1344 7.70134 14.2048C7.58765 14.3185 7.38965 14.515 7.16149 14.8151C6.10421 16.2041 5.64092 18.1671 6.08178 20.0009C6.14288 20.2531 6.24033 20.5872 6.40662 20.97C6.52727 21.2492 6.89465 21.3165 7.10966 21.1015C8.89706 19.3141 10.6852 17.5259 12.4726 15.7385C12.642 15.5692 12.915 15.5699 13.0852 15.7385C13.2569 15.9087 13.4255 16.0819 13.5624 16.2498C13.7712 16.5066 13.9437 16.8414 14.0002 17.0271C14.0675 17.2475 14.2221 17.7819 13.9909 18.369C13.8695 18.6776 13.6862 18.8872 13.5655 19.0047C10.5893 21.9817 7.6124 24.9578 4.63546 27.9348C4.46608 28.1042 4.46608 28.3779 4.63546 28.5473C5.49165 29.4035 6.34784 30.2597 7.2048 31.1167C7.37418 31.286 7.64797 31.286 7.81736 31.1167L16.8371 22.0969C17.0343 21.8796 17.2648 21.5857 17.4705 21.2082C17.5015 21.1518 17.5309 21.0953 17.5579 21.0404C17.6902 20.7736 18.0429 20.7125 18.2533 20.9236C18.4412 21.1116 18.6299 21.3003 18.8179 21.4882C18.8287 21.499 18.8395 21.5107 18.8496 21.523C19.0948 21.8192 19.2115 22.1031 19.2688 22.2794C19.333 22.4767 19.5055 23.0359 19.2688 23.6523C19.1713 23.9052 19.036 24.0885 18.9377 24.2014C18.93 24.2099 18.9231 24.2177 18.9153 24.2254C15.9322 27.2077 12.9498 30.1909 9.96749 33.1732C9.80043 33.3403 9.79811 33.611 9.96285 33.7811C10.8113 34.6559 11.6598 35.5299 12.5082 36.4046C12.6768 36.5786 12.9568 36.5802 13.127 36.4077C16.2617 33.239 19.3964 30.0702 22.5311 26.9015C22.7121 26.7321 22.9511 26.483 23.1885 26.1505C24.1638 24.7846 24.1762 23.3151 24.1739 22.8765C24.1654 21.315 23.5188 20.1827 23.2473 19.7202C23.0617 19.4038 22.8985 19.1602 22.4971 18.6876C22.108 18.229 16.462 12.6935 13.0922 9.33066C13.0079 9.24636 12.8973 9.20459 12.7874 9.20459C12.6776 9.20459 12.56 9.24867 12.475 9.33685" fill="white"></path></mask><g mask="url(#mask0_440_907)"><path d="M14.3216 -0.650182L-9.22021 22.8916L14.3216 46.4334L37.8634 22.8916L14.3216 -0.650182Z" fill="url(#paint0_linear_440_907)"></path></g><mask id="mask1_440_907" style="mask-type:luminance" maskUnits="userSpaceOnUse" x="0" y="0" width="26" height="28"><path d="M12.4495 0.775565C9.1794 4.0611 5.90933 7.34586 2.63927 10.6314C2.62689 10.6438 2.61606 10.6561 2.60524 10.6701C2.10483 11.3043 1.45669 12.2533 0.931531 13.5132C-0.312146 16.4963 0.00341774 19.1446 0.133354 20.1307C0.247049 20.9907 0.616745 23.1548 2.03444 25.4573C2.37475 26.0103 2.71584 26.4744 3.01593 26.8472C3.17758 27.0482 3.47767 27.0653 3.6602 26.8827L6.21407 24.3289C6.37417 24.1688 6.38345 23.9128 6.2365 23.7403C6.09805 23.5779 5.94492 23.3837 5.78946 23.1579C4.33773 21.0441 4.46689 18.7145 4.4986 18.136C4.69428 14.6092 7.17235 12.3623 7.70215 11.9037C7.70988 11.8967 7.71762 11.8898 7.72458 11.882L12.441 7.144C12.6103 6.97384 12.8849 6.97307 13.0543 7.14322C13.3088 7.39768 13.5756 7.66761 13.8525 7.94914C13.8556 7.94604 13.8587 7.94295 13.8618 7.93986C17.1821 11.2602 23.1762 17.1352 23.5776 17.6077C23.979 18.0803 24.1414 18.3239 24.3278 18.6403C24.5993 19.1028 25.2467 20.2351 25.2544 21.7966C25.2544 21.8369 25.2544 21.8856 25.2544 21.9421C25.2544 21.9436 25.2544 21.9451 25.2544 21.9459C25.3534 21.3504 25.6806 19.4733 25.6775 18.5815C25.6728 17.1561 25.3774 16.0477 25.29 15.6657C24.8777 13.8759 24.1639 12.5743 23.7385 11.8875C23.7369 11.8851 23.7354 11.8828 23.7338 11.8805C23.4067 11.3538 23.0192 10.8681 22.5837 10.4272C19.4111 7.21051 16.2385 3.99381 13.0667 0.777113C12.9816 0.691262 12.8702 0.647949 12.7581 0.647949C12.6459 0.647949 12.5353 0.690487 12.451 0.775565" fill="white"></path></mask><g mask="url(#mask1_440_907)"><path d="M12.6835 -12.3481L-13.5206 13.856L12.6835 40.06L38.8875 13.856L12.6835 -12.3481Z" fill="url(#paint1_linear_440_907)"></path></g><defs><linearGradient id="paint0_linear_440_907" x1="31.4136" y1="6.27514" x2="8.00376" y2="29.685" gradientUnits="userSpaceOnUse"><stop stop-color="#2ACC47"></stop><stop offset="1" stop-color="#AFF022"></stop></linearGradient><linearGradient id="paint1_linear_440_907" x1="26.0401" y1="0.909046" x2="2.6302" y2="24.3189" gradientUnits="userSpaceOnUse"><stop stop-color="#2ACC47"></stop><stop offset="1" stop-color="#AFF022"></stop></linearGradient></defs></svg>