<svg xmlns="http://www.w3.org/2000/svg" width="2560" height="1580" viewBox="0 0 2560 1580" fill="none"><g opacity="0.2" clip-path="url(#clip0_440_1075)"><path d="M1988.45 1578.85C1986.58 1580 1984.89 1579.84 1984.03 1578.92C1982.95 1577.76 1982.28 1576.39 1981.85 1575.06C1978.87 1565.81 1975.5 1556.61 1973.16 1547.3C1968.33 1528.07 1965.99 1508.68 1963.67 1489.27C1961.26 1468.9 1958.34 1448.54 1952.63 1428.41C1944.63 1400.13 1930.39 1373.15 1907.33 1348.1C1893.31 1332.87 1876.72 1318.73 1858.3 1305.38C1832.04 1286.35 1802.82 1269.13 1773.48 1251.96C1748.77 1237.51 1724.02 1223.06 1700.96 1207.59C1675.68 1190.63 1652.82 1172.53 1634.9 1152.22C1622.19 1137.83 1612.87 1122.65 1606.97 1106.64C1598.13 1082.61 1597.51 1058.38 1600.71 1033.96C1604.08 1008.24 1611.72 982.961 1620.78 957.831C1629.76 932.907 1639.32 908.072 1648.4 883.162C1656.09 862.058 1661.83 840.733 1663.88 819.127C1666.53 791.091 1662.78 763.41 1650.62 736.229C1640.23 713.001 1624.94 691.042 1607.16 669.687C1591.17 650.47 1574.76 631.386 1558.68 612.2C1538.63 588.264 1521.41 563.59 1507.38 538.047C1495.34 516.073 1485.57 493.715 1476.63 471.21C1468.75 451.374 1461.41 431.449 1451.23 411.982C1442.63 395.494 1432.14 379.478 1417.64 364.582C1398 344.452 1372.48 327.683 1341.3 314.189C1311.1 301.108 1278.03 291.625 1243.48 283.867C1206.9 275.638 1169.29 269.754 1131.25 264.946C1102.58 261.333 1073.74 258.221 1044.69 255.964C1023.23 254.298 1001.82 252.292 980.342 250.714C960.128 249.225 939.843 248.074 919.581 246.835C895.521 245.375 871.46 243.915 847.376 242.588C829.623 241.6 811.87 240.789 794.094 239.904C774.119 238.916 754.12 237.942 734.146 236.925C713.549 235.878 692.93 234.875 672.334 233.71C651.427 232.515 630.544 231.173 609.637 229.846C570.691 227.368 531.793 224.743 493.11 220.968C472.371 218.947 451.679 216.779 431.107 214.213C409.913 211.558 388.792 208.638 367.861 205.305C346.62 201.928 325.785 197.636 305.332 192.652C286.051 187.962 267.318 182.594 249.231 176.355C230.307 169.822 212.483 162.286 195.447 154.012C176.404 144.736 159.153 134.309 142.691 123.337C140.325 121.759 137.41 120.52 135.021 118.956C129.764 115.55 124.317 112.231 119.562 108.574C97.0546 91.2747 75.0488 73.7099 52.2307 56.5581C37.8948 45.7922 22.4119 35.6014 7.4547 25.1599C5.35209 23.6851 3.1539 22.2693 1.17076 20.7355C0.645107 20.3373 0.597321 19.6294 0.597321 19.069C0.597321 18.7445 1.09908 18.4053 1.57695 17.8154C3.05833 18.6118 4.5875 19.305 5.87774 20.1308C24.9685 32.2536 43.1035 44.8778 60.235 58.0624C83.7221 76.1286 107.424 94.0915 131.079 112.084C134.28 114.517 137.601 116.833 141.974 118.602C145.104 119.871 147.565 121.788 150.169 123.514C164.864 133.336 180.538 142.509 197.43 150.9C230.666 167.403 267.318 180.234 306.933 189.923C347.91 199.952 390.369 206.633 433.472 212.001C480.303 217.826 527.612 221.808 575.04 225.156C604.429 227.235 633.937 228.799 663.397 230.554C686.192 231.911 709.01 233.282 731.828 234.506C752.113 235.597 772.446 236.482 792.732 237.544C818.728 238.901 844.7 240.317 870.696 241.733C885.916 242.558 901.136 243.384 916.332 244.299C937.239 245.552 958.145 246.703 979.004 248.222C1005.86 250.183 1032.72 252.248 1059.48 254.652C1081.51 256.643 1103.39 259.209 1125.33 261.539C1149.82 264.135 1173.9 267.851 1197.87 271.818C1236.38 278.204 1273.82 286.448 1309.19 297.907C1332.62 305.502 1354.61 314.513 1374.25 325.589C1398 338.995 1417.14 354.539 1431.83 372.178C1442.2 384.61 1450.35 397.588 1457.11 410.92C1467.02 430.417 1474.38 450.327 1482.08 470.192C1492.97 498.287 1505.52 526.101 1522 553.164C1532.52 570.448 1544.22 587.438 1558.01 603.852C1573.09 621.8 1588.67 639.601 1603.53 657.623C1613.92 670.218 1623.86 682.975 1633.27 695.85C1642.95 709.108 1650.96 722.794 1656.59 736.937C1659.7 744.754 1662.54 752.629 1664.6 760.563C1666.77 768.896 1668.56 777.302 1669.28 785.723C1670.09 795.324 1670.17 804.984 1669.45 814.585C1667.61 839.391 1660.75 863.739 1651.6 887.896C1641.59 914.28 1631.48 940.664 1622.16 967.137C1613.37 992.105 1606.54 1017.28 1604.15 1042.84C1602.05 1065.34 1604.36 1087.61 1612.96 1109.56C1617.24 1120.47 1623.6 1130.94 1631.27 1141.13C1641.76 1155.08 1655.14 1167.94 1669.97 1180.26C1690.14 1197.03 1713.2 1212.2 1737.33 1226.77C1758.71 1239.68 1780.48 1252.33 1801.98 1265.15C1822.13 1277.15 1841.65 1289.54 1860.07 1302.58C1878.32 1315.5 1894.67 1329.26 1908.74 1344C1921.52 1357.41 1931.94 1371.49 1939.94 1386.29C1946.3 1398.06 1951.77 1409.94 1955.24 1422.15C1958.03 1432.02 1960.73 1441.92 1962.43 1451.86C1965.46 1469.63 1967.68 1487.46 1970.31 1505.26C1973.04 1523.65 1975.76 1542.04 1981.71 1560.16C1983.22 1564.78 1985.06 1569.37 1986.7 1573.97C1987.3 1575.65 1987.85 1577.33 1988.38 1578.84L1988.45 1578.85Z" fill="white" fill-opacity="0.1"></path><path d="M89.6954 0.176957C93.0166 0.589898 95.0714 0.50141 96.3617 1.07658C98.9183 2.21217 101.14 3.65746 103.386 5.04376C125.631 18.8183 146.968 33.109 167.97 47.5914C188.136 61.4987 208.732 75.1405 230.355 88.2071C231.932 89.1657 233.509 90.2423 235.421 90.8765C243.64 93.6491 249.972 97.8375 256.996 101.51C274.725 110.801 293.553 119.119 313.408 126.625C338.21 136.005 364.301 143.644 391.348 150.074C416.914 156.151 443.197 160.84 469.766 164.926C502.524 169.969 535.64 173.819 568.923 177.24C609.446 181.399 650.161 184.629 690.946 187.475C714.027 189.083 737.18 190.277 760.285 191.619C784.99 193.05 809.696 194.48 834.426 195.822C852.178 196.781 869.955 197.577 887.708 198.507C907.372 199.539 927.012 200.645 946.653 201.692C961.562 202.488 976.471 203.123 991.357 204.007C1016.71 205.497 1042.03 207.031 1067.34 208.727C1090.73 210.29 1114.14 211.883 1137.46 213.83C1169.94 216.543 1202.33 219.64 1234.47 223.652C1264.74 227.427 1294.78 231.734 1324.31 237.323C1361.87 244.431 1398.19 253.369 1431.95 265.845C1457.49 275.284 1480.6 286.669 1499.88 300.754C1515.15 311.903 1527.67 324.114 1537.65 337.402C1551.27 355.513 1560.4 374.478 1566.97 393.931C1573.13 412.189 1578.61 430.55 1584.44 448.852C1593.04 475.841 1602.52 502.726 1616.86 528.8C1627.09 547.412 1639.1 565.611 1653.56 583.131C1667.42 599.929 1681.92 616.521 1695.92 633.274C1714.87 655.971 1733.48 678.771 1746.55 703.105C1760.08 728.295 1767.1 754.133 1767.53 780.665C1767.89 802.551 1764.14 824.2 1758.26 845.747C1751.59 870.17 1741.8 894.164 1732.12 918.174C1725.98 933.409 1720.15 948.702 1713.87 963.922C1706.79 981.074 1701.42 998.417 1698.03 1016C1693.37 1040.17 1693.75 1064.24 1702.23 1088.1C1706.96 1101.4 1714.46 1114.11 1723.93 1126.4C1741.15 1148.76 1764.21 1168.68 1791.16 1186.92C1805.95 1196.94 1821.12 1206.75 1836.58 1216.36C1853.81 1227.1 1871.8 1237.38 1889.05 1248.1C1904.27 1257.57 1919.18 1267.26 1933.8 1277.08C1951.92 1289.25 1968.14 1302.37 1982.5 1316.32C2003.43 1336.67 2018.89 1358.56 2029.76 1381.73C2037.12 1397.44 2042.42 1413.38 2046.27 1429.51C2051.84 1452.83 2056.54 1476.22 2062.21 1499.54C2067.22 1520.17 2074.87 1540.45 2087.15 1559.94C2090.62 1565.43 2094.89 1570.71 2098.81 1576.09C2099.46 1576.96 2100.13 1577.82 2100.65 1578.53C2099.1 1580.3 2097.14 1580.01 2095.75 1579.13C2094.25 1578.17 2093.17 1576.92 2092.22 1575.69C2082.9 1563.81 2075.63 1551.45 2070.16 1538.71C2060.34 1515.86 2054.99 1492.55 2050.33 1469.14C2045.41 1444.38 2040.39 1419.6 2030.93 1395.31C2021.42 1370.93 2007.13 1347.66 1986.68 1325.92C1969.02 1307.16 1947.57 1290.12 1923.89 1274.13C1901.33 1258.89 1877.37 1244.54 1853.36 1230.21C1826.83 1214.37 1800.5 1198.38 1776.59 1181C1761.72 1170.22 1748.13 1158.84 1736.18 1146.74C1723.4 1133.76 1712.84 1120.16 1704.98 1105.78C1695.97 1089.28 1691.5 1072.26 1690.5 1054.89C1689.35 1035.17 1692.46 1015.66 1698 996.249C1705.07 971.458 1715.68 947.183 1725.62 922.82C1734.63 900.727 1743.8 878.664 1750.66 856.277C1757.95 832.503 1762.82 808.568 1762.85 784.307C1762.85 751.08 1752.41 719.151 1732.46 688.343C1723.23 674.111 1712.7 660.248 1701.2 646.665C1684.12 626.475 1666.89 606.315 1650.26 585.992C1628.97 559.977 1612.2 532.856 1599.75 504.732C1589.6 481.784 1582.12 458.482 1574.71 435.151C1569.55 418.973 1564.53 402.765 1558.54 386.69C1552.04 369.243 1543.08 352.224 1530.1 336.149C1521.72 325.766 1511.82 315.959 1500.02 306.845C1478.02 289.884 1451.16 276.641 1420.82 265.845C1388.37 254.313 1353.94 245.729 1318.07 239.314C1299.15 235.922 1280.13 232.633 1260.94 229.861C1228.74 225.2 1196.17 221.572 1163.41 218.667C1136.65 216.307 1109.89 213.992 1083.04 212.001C1060.93 210.364 1038.71 209.258 1016.56 207.916C999.146 206.869 981.752 205.733 964.31 204.833C929.736 203.019 895.162 201.368 860.589 199.583C841.259 198.58 821.953 197.445 802.624 196.368C780.761 195.159 758.875 194.112 737.037 192.696C703.825 190.543 670.613 188.271 637.449 185.764C613.771 183.98 590.141 181.915 566.582 179.6C532.008 176.208 497.626 172.182 463.673 166.858C434.356 162.271 405.398 156.947 377.299 149.927C337.254 139.898 299.933 126.95 266.052 110.358C258.334 106.583 250.999 102.513 243.497 98.5749C239.626 96.5544 235.707 94.6224 231.502 92.8232C226.078 90.5078 221.348 87.4549 216.808 84.4464C197.693 71.8222 178.65 59.1538 159.774 46.3968C138.533 32.0324 117.483 17.5647 94.9281 3.96716C93.4228 3.05279 92.1803 1.96145 89.7432 0.147461L89.6954 0.176957Z" fill="white" fill-opacity="0.1"></path><path d="M2240.19 1579C2238.92 1580.41 2236.8 1580.04 2235.24 1579.51C2233.07 1578.76 2230.99 1577.77 2229.29 1576.64C2214.34 1566.67 2200.84 1556.03 2189.75 1544.24C2170.35 1523.62 2158.16 1501.35 2149.9 1478.25C2143.37 1460.04 2138.07 1441.66 2132.29 1423.35C2125.95 1403.29 2119.24 1383.31 2109.25 1363.78C2093.67 1333.31 2070.19 1305.42 2038.84 1280.01C2018.96 1263.89 1996.95 1248.92 1974.06 1234.41C1944.99 1215.98 1915.45 1197.81 1887.02 1178.99C1859.81 1160.98 1835.96 1141.35 1818.02 1119.19C1802.94 1100.58 1793.05 1080.98 1788.46 1060.36C1785.16 1045.51 1784.18 1030.61 1785.64 1015.66C1787.63 995.423 1792.19 975.381 1799.05 955.574C1805.69 936.373 1813.12 917.274 1819.93 898.102C1826.88 878.546 1834.43 859.064 1840.21 839.331C1845.66 820.734 1849.56 802.049 1851.16 783.201C1853 761.758 1850.94 740.417 1844.56 719.24C1837.25 694.92 1824.13 671.825 1807.03 649.585C1794.63 633.451 1780.84 617.715 1767.87 601.728C1754.75 585.579 1741.22 569.548 1729.04 553.134C1708.39 525.349 1693.77 496.325 1684.45 466.269C1679.48 450.238 1675.35 434.148 1671.69 417.999C1666.7 396.025 1662.33 373.962 1654.99 352.224C1648.76 333.73 1640.56 315.605 1627.13 298.497C1614.66 282.599 1598.68 268.264 1578.27 255.92C1558.15 243.768 1535.31 233.828 1510.56 225.539C1476.53 214.139 1440.5 205.939 1403.44 199.303C1364.59 192.342 1325.05 187.268 1285.2 183.036C1253.2 179.629 1221.11 176.709 1188.88 174.364C1155.38 171.945 1121.84 169.674 1088.27 167.698C1031.23 164.335 974.154 161.371 917.144 158.023C876.908 155.664 836.696 153.009 796.507 150.369C761.073 148.039 725.711 145.296 690.54 141.786C668.248 139.559 645.955 137.214 623.806 134.456C599.483 131.433 575.255 128.1 551.171 124.472C510.91 118.425 471.678 110.388 433.926 99.7545C403.725 91.245 375.173 81.0099 348.388 68.9019C346.859 68.2088 345.473 67.2649 343.777 66.8225C332.045 63.8139 323.229 58.2982 313.767 53.4166C286.409 39.3029 260.533 24.1716 235.086 8.74528C231.024 6.28239 226.891 3.89323 222.853 1.48932C224.334 -0.265677 226.437 0.132516 227.846 0.648692C229.997 1.43033 231.884 2.53642 233.748 3.59827C254.655 15.6768 275.227 27.9618 296.492 39.7896C309.944 47.2815 324.184 54.2573 338.449 61.1298C345.425 64.4923 353.501 66.9699 360.765 70.1112C398.325 86.3044 438.944 98.7074 481.976 108.294C519.464 116.656 557.909 122.791 596.759 128.159C636.231 133.616 676.085 137.701 716.011 141.491C737.084 143.497 758.278 145.001 779.471 146.535C812.014 148.894 844.604 151.151 877.171 153.319C892.343 154.336 907.587 155.03 922.783 155.9C949.09 157.389 975.372 158.908 1001.68 160.383C1023.85 161.637 1046.05 162.772 1068.22 164.1C1097.04 165.825 1125.85 167.639 1154.64 169.541C1173.3 170.78 1191.99 172.034 1210.55 173.641C1237.65 175.986 1264.74 178.361 1291.7 181.281C1317.38 184.053 1342.99 187.209 1368.42 190.823C1392.91 194.303 1417.11 198.492 1440.86 203.653C1462.2 208.284 1483.18 213.431 1503.39 219.684C1525.35 226.483 1546.26 234.358 1565.2 244.077C1583.67 253.531 1599.97 264.149 1613.37 276.523C1631.82 293.542 1644.19 312.095 1652.75 331.798C1662.07 353.3 1667.16 375.275 1672.08 397.264C1678.07 423.913 1683.45 450.621 1692.94 476.932C1702.35 503.109 1716.04 528.417 1733.84 552.854C1747.68 571.849 1763.42 590.254 1779.21 608.66C1795.89 628.098 1812.12 647.683 1825.23 668.182C1838.25 688.549 1847.6 709.476 1852.38 731.229C1856.68 750.815 1856.87 770.429 1854.81 790.059C1853.14 805.942 1849.89 821.723 1844.75 837.355C1840.26 851.012 1836.2 864.742 1831.42 878.354C1826.28 892.925 1820.36 907.408 1815.05 921.964C1806.02 946.681 1797.52 971.473 1792.83 996.691C1789.63 1013.93 1788.72 1031.2 1791.21 1048.47C1794.86 1073.78 1805.76 1097.83 1824.73 1120.51C1840.02 1138.8 1859.57 1155.19 1881.1 1170.76C1898.66 1183.47 1917.6 1195.38 1936.6 1207.25C1962.09 1223.17 1987.95 1238.88 2012.01 1255.65C2037.38 1273.33 2060.41 1292.06 2078.96 1312.8C2100.03 1336.34 2114.6 1361.38 2124.83 1387.48C2133.91 1410.61 2139.96 1434.08 2147.72 1457.36C2153.81 1475.63 2160.65 1493.8 2171.16 1511.36C2185.9 1536.04 2207.45 1558.04 2237.73 1576.67C2238.61 1577.21 2239.4 1577.83 2240.19 1578.45C2240.33 1578.57 2240.19 1578.81 2240.19 1579.01V1579Z" fill="white" fill-opacity="0.1"></path><path d="M2450.69 1579.19C2442.92 1580.52 2437.83 1579.38 2432.94 1578.1C2425.6 1576.2 2418.34 1574.17 2411.19 1572.01C2380.2 1562.58 2351.2 1551.32 2326.01 1536.61C2309.31 1526.85 2294.69 1516.04 2282.43 1503.96C2262.65 1484.46 2249.32 1463.3 2239.42 1441.27C2231.25 1423.11 2223.77 1404.82 2216.03 1386.58C2208.22 1368.13 2199.62 1349.86 2188.12 1332.13C2176.03 1313.48 2161.1 1295.76 2143.21 1278.97C2121.25 1258.36 2095.49 1239.71 2068.11 1221.88C2050.38 1210.33 2032.24 1199.02 2014.52 1187.47C1993.49 1173.78 1972.73 1159.97 1954.16 1144.94C1931.87 1126.89 1912.83 1107.71 1899.37 1086.49C1886.4 1066.01 1879.16 1044.81 1876.34 1022.91C1874.38 1007.77 1874.6 992.68 1876.65 977.593C1878.75 962.314 1882.48 947.168 1886.88 932.081C1894.17 907.157 1903.41 882.484 1911.87 857.708C1918.82 837.341 1925.13 816.885 1929.24 796.209C1933.42 775.119 1935.29 753.912 1933.21 732.675C1931.53 715.582 1926.85 698.755 1919.75 682.178C1911.61 663.124 1900.21 644.792 1886.26 627.11C1870.65 607.347 1854.24 587.821 1838.16 568.192C1819.33 545.2 1802.18 521.795 1789.7 497.151C1778.19 474.395 1770.35 451.153 1765.88 427.497C1762.68 410.522 1760.27 393.488 1757.61 376.484C1753.94 353.02 1750.4 329.542 1742.4 306.446C1736.45 289.28 1727.8 272.674 1714.56 257.085C1700.99 241.098 1683.14 227.162 1661.3 215.127C1637.12 201.795 1609.84 191.472 1580.69 182.918C1546.37 172.845 1510.53 165.427 1473.91 159.321C1442.25 154.056 1410.25 149.765 1378.02 146.063C1347.68 142.568 1317.21 139.559 1286.61 137.111C1259.49 134.943 1232.39 132.598 1205.25 130.534C1185.99 129.074 1166.66 127.953 1147.38 126.67C1126.19 125.254 1104.99 123.779 1083.8 122.363C1069.56 121.419 1055.32 120.564 1041.08 119.635C1014.51 117.895 987.916 116.258 961.371 114.355C931.982 112.246 902.593 110.093 873.276 107.615C846.802 105.374 820.376 102.881 794.046 100.109C767.405 97.2918 740.788 94.3127 714.362 90.847C673.265 85.464 632.671 78.8422 592.721 70.7751C564.264 65.0382 536.357 58.4164 509.166 50.718C497.028 47.2817 485.416 43.1818 473.517 39.4211C467.305 37.4596 460.902 35.7046 454.737 33.6842C449.672 32.0324 444.63 30.3217 439.923 28.3307C421.263 20.4701 402.722 12.4915 384.204 4.51287C381.958 3.53951 380.071 2.25644 377.586 0.88489C382.03 -0.250697 385.112 0.353966 388.051 1.75502C407.261 10.825 427.26 19.2313 447.784 27.1066C453.71 29.3778 460.089 31.1623 466.278 33.1533C468.524 33.8759 470.889 34.4953 473.087 35.2475C508.187 47.326 544.934 57.0743 582.949 65.1562C619.099 72.8398 655.776 79.3289 692.953 84.7266C734.169 90.7143 775.696 95.6106 817.533 99.7105C853.684 103.25 889.882 106.509 926.248 109.09C970.522 112.246 1014.77 115.373 1059.07 118.381C1095.75 120.888 1132.52 123.027 1169.17 125.667C1211.51 128.72 1253.87 131.61 1296.04 135.474C1328.44 138.438 1360.87 141.388 1393 145.281C1430.16 149.78 1467.1 154.882 1503.34 161.755C1536.27 167.993 1568.43 175.397 1599.04 185.189C1626.56 193.994 1652.17 204.597 1674.39 218.048C1699.03 232.972 1717.57 250.39 1730.35 270.211C1744.71 292.495 1751.98 315.796 1756.11 339.496C1759.77 360.394 1762.56 381.336 1765.88 402.249C1769.59 425.535 1774.44 448.704 1783.06 471.519C1789.58 488.774 1798.45 505.572 1808.91 522.046C1821.12 541.262 1836.1 559.697 1851.4 578.029C1862.46 591.287 1873.78 604.486 1884.32 617.907C1896.67 633.643 1907.81 649.674 1916.67 666.339C1930.32 691.941 1937.22 718.134 1937.94 745.048C1938.54 767.332 1935.14 789.425 1929.74 811.384C1926.02 826.516 1921.24 841.559 1916.31 856.572C1909.5 877.352 1901.98 898.028 1895.05 918.793C1888.36 938.806 1883.39 958.996 1880.69 979.378C1877.89 1000.44 1879.35 1021.42 1884.63 1042.25C1888.29 1056.63 1894.6 1070.62 1903.1 1084.25C1911.03 1096.95 1921.09 1108.95 1932.59 1120.53C1941.9 1129.91 1952.32 1138.82 1963.31 1147.46C1975.5 1157.05 1988.4 1166.25 2002 1175.08C2027.2 1191.45 2052.58 1207.72 2077.64 1224.18C2100.77 1239.35 2122.49 1255.27 2141.72 1272.45C2161.34 1289.95 2177.73 1308.55 2190.85 1328.22C2202.96 1346.42 2212.23 1365.2 2220.31 1384.21C2229.68 1406.24 2237.92 1428.47 2249.36 1450.16C2261.24 1472.69 2276.74 1494.14 2300.02 1513.19C2319.78 1529.36 2343.74 1542.7 2371.08 1553.84C2394.54 1563.41 2419.51 1571.15 2445.58 1577.58C2446.7 1577.86 2447.73 1578.27 2450.69 1579.23V1579.19Z" fill="white" fill-opacity="0.1"></path><path d="M0.97962 102.114C5.61492 105.034 8.5299 107.822 11.6599 110.506C22.2447 119.591 32.8294 128.675 43.4141 137.775C44.1548 138.409 44.6805 139.19 45.6362 139.677C57.1528 145.694 65.0853 153.629 74.9772 160.516C101.308 178.848 130.649 194.996 164.386 207.945C189.307 217.502 215.709 225.274 243.138 231.719C263.089 236.408 283.398 240.42 303.971 243.797C323.635 247.027 343.49 249.888 363.465 252.277C389.389 255.374 415.409 258.206 441.548 260.507C469.575 262.969 497.745 264.857 525.915 266.686C555.017 268.574 584.191 270.137 613.365 271.759C649.181 273.75 684.997 275.623 720.813 277.599C749.007 279.148 777.249 280.564 805.395 282.437C840.495 284.782 875.546 287.525 910.598 290.135C942.519 292.509 974.202 295.754 1005.79 299.426C1038.95 303.275 1071.78 308.068 1104.09 314.1C1132.42 319.38 1160.14 325.766 1186.73 333.907C1209.31 340.824 1230.84 348.787 1250.48 358.595C1273.13 369.906 1292.63 382.973 1308.61 398.075C1326.32 414.799 1339.17 432.865 1349.9 451.654C1361.97 472.788 1371.26 494.438 1381.77 515.866C1396.54 545.996 1414.22 575.418 1435.63 604C1450.47 623.806 1466.93 643.081 1483.37 662.386C1498.18 679.774 1512.76 697.221 1525.04 715.361C1535.36 730.595 1543.82 746.199 1549.93 762.333C1558.58 785.104 1560.76 808.14 1559.49 831.397C1558.08 857.147 1554.14 882.764 1548.21 908.248C1544.32 924.973 1539.66 941.623 1535.34 958.303C1528.98 982.74 1522.05 1007.12 1517.99 1031.76C1514.57 1052.5 1512.88 1073.29 1515.79 1094.13C1519.57 1121.08 1530.58 1146.72 1551.63 1170.57C1561.38 1181.63 1572.73 1192.04 1585.34 1201.95C1612.18 1223.03 1643.19 1241.64 1674.61 1260.03C1707.15 1279.08 1740.41 1297.7 1770.25 1318.45C1789.94 1332.13 1807.81 1346.61 1823.11 1362.34C1842.63 1382.38 1856.29 1403.84 1865.3 1426.49C1870.77 1440.25 1874.36 1454.2 1876.87 1468.27C1879.73 1484.29 1881.43 1500.35 1882.98 1516.42C1884.92 1536.42 1886.47 1556.45 1890.72 1576.33C1891.15 1578.39 1890.15 1579.85 1888.67 1579.62C1886.28 1579.25 1886.21 1577.98 1886.04 1576.83C1884.32 1565.49 1882.34 1554.16 1881 1542.81C1879.23 1527.72 1878.23 1512.6 1876.46 1497.51C1873.98 1476.16 1870.68 1454.85 1863.18 1433.88C1854.88 1410.71 1842.03 1388.62 1822.96 1367.95C1809.54 1353.41 1793.84 1339.87 1776.32 1327.09C1751.43 1308.9 1723.73 1292.42 1695.73 1276.1C1670.98 1261.68 1645.89 1247.45 1622.31 1232.27C1598.03 1216.64 1575.36 1200.26 1556.67 1181.85C1535.57 1161.1 1522.05 1138.61 1515.27 1114.54C1509.72 1094.9 1508.96 1075.12 1510.63 1055.23C1512.83 1029.28 1518.94 1003.65 1525.59 978.05C1532.97 949.542 1541.07 921.094 1546.42 892.394C1550.99 867.972 1553.64 843.49 1553.78 818.906C1553.92 794.778 1548.55 771.108 1537.41 747.983C1529.43 731.392 1519.23 715.272 1506.76 699.772C1491.2 680.423 1475.05 661.266 1459.07 642.049C1439.43 618.453 1421.03 594.502 1405.21 569.814C1392.79 550.435 1382.42 530.644 1372.65 510.704C1364.9 494.909 1357.43 479.07 1349.35 463.349C1340.29 445.725 1329.16 428.618 1314.66 412.395C1300.56 396.63 1282.97 382.545 1261.83 370.113C1240.68 357.68 1216.79 347.726 1191.08 339.319C1168.24 331.857 1144.42 325.795 1120.02 320.634C1097.44 315.855 1074.51 311.814 1051.28 308.378C1016.59 303.261 981.632 299.072 946.318 295.96C922.066 293.837 897.862 291.477 873.563 289.634C847.352 287.643 821.069 286.05 794.811 284.413C765.374 282.569 735.914 280.814 706.453 279.118C688.39 278.071 670.303 277.245 652.215 276.272C633.818 275.284 615.444 274.281 597.07 273.249C579.962 272.29 562.831 271.405 545.747 270.329C524.864 269.001 503.981 267.556 483.122 266.052C466.063 264.828 448.979 263.618 431.991 262.099C414.692 260.551 397.393 258.855 380.214 256.834C360.526 254.519 340.886 252.041 321.413 249.165C280.818 243.163 241.083 235.465 203.284 224.345C177.933 216.882 153.968 208.048 131.58 197.518C116.599 190.469 102.646 182.741 89.337 174.571C75.5745 166.12 63.15 156.917 51.1556 147.479C49.029 145.797 46.4008 144.337 44.0592 142.759C41.9327 141.314 39.639 139.928 37.7992 138.35C26.3065 128.454 14.9333 118.514 3.5362 108.574C2.62826 107.777 1.48138 106.981 1.07519 106.067C0.645114 105.064 0.97962 103.943 0.97962 102.144V102.114Z" fill="white" fill-opacity="0.1"></path><path d="M1.05132 195.822C5.376 198.639 8.74496 200.674 11.8511 202.857C28.5047 214.567 47.0698 225.023 67.2597 234.329C85.8964 242.912 105.8 250.316 126.587 256.79C161.089 267.556 197.239 275.608 234.465 281.891C274.701 288.675 315.439 294.014 356.703 297.863C379.975 300.031 403.223 302.464 426.567 304.293C457.174 306.682 487.877 308.629 518.556 310.664C546.081 312.493 573.63 314.204 601.155 315.929C622.994 317.301 644.88 318.495 666.719 319.94C692.667 321.666 718.591 323.45 744.467 325.456C769.412 327.388 794.333 329.438 819.182 331.798C841.809 333.951 864.388 336.414 886.871 339.083C912.82 342.166 938.505 345.985 963.927 350.454C1000.75 356.913 1036.63 364.863 1070.73 375.658C1091.14 382.118 1110.7 389.536 1128.6 398.429C1148.24 408.192 1165.83 419.223 1180.93 431.759C1200.04 447.628 1214.83 464.956 1226.97 483.185C1237.03 498.272 1245.75 513.654 1254.04 529.139C1268.95 556.939 1284.38 584.621 1303.81 611.359C1315.78 627.832 1328.97 643.996 1341.87 660.204C1357.59 679.936 1374.2 699.389 1388.75 719.49C1403.33 739.636 1414.46 760.489 1423.47 781.8C1429.8 796.813 1435.84 811.871 1440.1 827.194C1444.37 842.709 1447.29 858.297 1448.89 874.004C1450.85 893.073 1450.06 912.127 1448.2 931.137C1446.76 945.634 1444.18 960.102 1441.75 974.555C1438.3 995.069 1434.53 1015.55 1430.9 1036.05C1427.98 1052.47 1426.19 1068.93 1426.19 1085.44C1426.19 1108.73 1429.89 1131.72 1440.5 1154.18C1448.39 1170.88 1459.71 1186.61 1474.41 1201.44C1490.77 1217.94 1510.65 1232.73 1532.18 1246.73C1552.35 1259.84 1573.64 1272.24 1594.88 1284.67C1618.65 1298.6 1642.28 1312.62 1665.34 1327C1689.57 1342.1 1711.38 1358.5 1729.83 1376.51C1746.91 1393.19 1760.36 1410.93 1769.9 1429.79C1780.1 1449.95 1786.07 1470.59 1789.18 1491.59C1791.69 1508.62 1793.55 1525.65 1794.63 1542.75C1795.29 1553.54 1796.56 1564.32 1797.54 1575.12C1797.8 1578.07 1796.82 1579.91 1795.18 1579.5C1792.09 1578.73 1792.67 1576.93 1792.55 1575.44C1791.26 1560.53 1789.97 1545.62 1788.8 1530.71C1787.39 1512.85 1785.36 1495.04 1781.58 1477.28C1778 1460.47 1772.19 1444.01 1763.71 1427.91C1753.03 1407.61 1737.69 1388.71 1718.19 1371.07C1699.46 1354.14 1678.05 1338.59 1654.52 1324.2C1631.24 1309.95 1607.4 1296.07 1583.7 1282.09C1557.7 1266.75 1531.73 1251.4 1508.15 1234.6C1487.24 1219.69 1469.01 1203.65 1455.03 1185.85C1443.18 1170.75 1434.65 1154.98 1429.3 1138.51C1423.18 1119.72 1421.36 1100.75 1421.72 1081.64C1422.03 1065.31 1423.99 1049.05 1426.76 1032.84C1430.54 1010.76 1434.77 988.728 1438.45 966.65C1440.34 955.324 1441.53 943.938 1442.99 932.582C1444.61 920.032 1444.85 907.467 1444.57 894.887C1444.02 870.862 1440.05 847.059 1432.5 823.478C1427 806.311 1419.62 789.454 1411.86 772.627C1401.08 749.325 1387.24 726.776 1369.92 705.037C1356.57 688.298 1343.07 671.604 1329.66 654.894C1311.43 632.183 1293.49 609.382 1279.13 585.609C1268.45 567.941 1258.32 550.155 1248.38 532.325C1237.72 513.182 1227.21 494.025 1213.66 475.56C1195.91 451.374 1173.02 429.326 1141.38 411.053C1121.79 399.727 1100.1 390.214 1076.68 382.073C1044.62 370.924 1010.54 362.813 975.611 355.97C945.267 350.026 914.301 345.469 883.096 341.546C843.171 336.517 802.958 332.55 762.531 329.438C735.388 327.359 708.221 325.264 681.031 323.436C649.396 321.297 617.737 319.439 586.079 317.448C559.485 315.767 532.892 314.071 506.323 312.316C486.707 311.018 467.09 309.735 447.522 308.245C426.997 306.682 406.473 305.134 386.068 303.143C358.089 300.414 330.182 297.435 302.346 294.264C277.306 291.418 252.6 287.613 228.062 283.41C201.659 278.897 175.855 273.322 150.647 266.686C112.036 256.539 76.2674 243.517 44.2743 226.675C30.225 219.271 17.1793 211.204 5.0176 202.621C3.56011 201.589 1.98315 200.556 1.00353 199.362C0.453983 198.698 1.00353 197.695 1.123 195.837L1.05132 195.822Z" fill="white" fill-opacity="0.1"></path><path d="M1.69644 271.789C5.87776 273.47 10.1308 275.122 14.2882 276.848C45.1345 289.59 78.4178 299.323 113.087 307.376C153.992 316.873 196.021 323.879 238.742 329.38C266.769 332.978 294.843 336.459 323.037 339.526C345.903 342.019 368.936 343.891 391.922 345.897C421.215 348.449 450.532 350.911 479.849 353.315C498.773 354.864 517.744 356.117 536.667 357.71C579.532 361.323 622.54 364.391 665.142 369.169C690.803 372.045 716.584 374.552 742.126 377.797C790.486 383.947 838.153 391.689 884.339 402.647C915.305 409.992 945.004 418.914 972.672 430.299C996.637 440.166 1018.17 451.787 1036.92 465.252C1056.73 479.469 1072.64 495.293 1085.85 512.18C1102.22 533.077 1115.1 554.845 1127.72 576.672C1141.5 600.534 1155.53 624.352 1171.8 647.624C1183.03 663.67 1194.64 679.612 1206.78 695.407C1219.47 711.895 1232.87 728.192 1246.23 744.488C1255.98 756.405 1266.23 768.159 1276.12 780.046C1289.93 796.637 1302.93 813.494 1314.01 830.852C1327.68 852.281 1337.98 874.329 1343.78 897.144C1350.28 922.672 1351.86 948.319 1350.21 974.098C1348.97 993.742 1346.39 1013.31 1343.95 1032.9C1340.92 1057.17 1337.57 1081.46 1338.17 1105.84C1338.69 1127.12 1342.02 1148.18 1350.52 1168.87C1359.53 1190.79 1374.37 1211.05 1394.37 1229.97C1412.88 1247.51 1435.03 1263.17 1458.92 1277.92C1474.89 1287.77 1491.3 1297.36 1507.5 1307.08C1527.83 1319.24 1548.5 1331.2 1568.38 1343.65C1595.93 1360.89 1621.04 1379.4 1641.61 1400.12C1661.9 1420.55 1676.38 1442.45 1685.55 1465.72C1693.01 1484.68 1697.36 1503.92 1699.24 1523.37C1700.94 1540.82 1702.3 1558.28 1703.76 1575.74C1703.83 1576.71 1703.9 1577.73 1703.57 1578.66C1703.43 1579.06 1702.18 1579.54 1701.44 1579.54C1700.73 1579.54 1699.48 1579.03 1699.36 1578.63C1698.93 1577.1 1698.81 1575.52 1698.69 1573.95C1697.28 1557.27 1696.26 1540.59 1694.39 1523.93C1691.62 1499.37 1686.01 1475.1 1673.77 1451.56C1666.37 1437.33 1657.14 1423.58 1645.36 1410.47C1634.21 1398.06 1621.5 1386.33 1607.3 1375.23C1592.73 1363.81 1577.1 1352.91 1560.26 1342.75C1535.46 1327.78 1510.51 1312.93 1485.47 1298.11C1463.18 1284.91 1441.2 1271.55 1421.15 1257.02C1390.73 1234.97 1366.63 1210.62 1351.91 1182.99C1345.24 1170.47 1340.77 1157.59 1337.79 1144.54C1333.82 1127.17 1332.91 1109.69 1333.8 1092.2C1334.66 1074.93 1336.38 1057.67 1338.17 1040.42C1340.18 1021.01 1343.14 1001.65 1344.76 982.239C1346.7 959.262 1346.22 936.27 1341.85 913.381C1336.09 883.34 1323.23 854.493 1304.07 826.634C1289.38 805.264 1272.1 784.691 1254.52 764.221C1235.31 741.848 1215.76 719.564 1198.23 696.661C1188.98 684.582 1180.11 672.401 1171.61 660.116C1161.72 645.854 1152.04 631.52 1142.96 617.067C1134.21 603.159 1126.35 589.031 1118.04 575.02C1111.9 564.697 1105.85 554.344 1099.43 544.094C1085.59 522.061 1069.13 500.824 1047.08 481.416C1036.11 471.756 1023.45 462.922 1009.73 454.678C988.155 441.714 963.736 431.125 937.478 422.144C921.326 416.613 904.577 411.835 887.469 407.543C838.368 395.244 787.428 386.808 735.675 380.024C693.623 374.508 651.284 370.069 608.754 366.367C563.691 362.444 518.556 358.979 473.446 355.262C448.214 353.183 423.007 351.118 397.823 348.862C371.087 346.472 344.326 344.054 317.685 341.296C281.296 337.535 245.074 333.199 209.21 327.831C178.913 323.303 148.855 318.142 119.49 311.623C85.5619 304.087 52.8759 294.914 22.0774 283.292C15.5546 280.83 9.24672 278.19 2.915 275.55C0.931851 274.724 -0.286707 273.588 1.72033 271.833L1.69644 271.789Z" fill="white" fill-opacity="0.1"></path><path d="M598.432 1.00278C605.982 -0.42777 611.023 0.545591 616.065 1.88765C627.462 4.91097 638.859 7.93428 650.399 10.7511C662.824 13.7892 675.344 16.6945 687.936 19.4376C701.149 22.2987 714.481 24.9239 727.79 27.5785C758.087 33.6251 788.718 38.9638 819.707 43.403C849.144 47.6208 878.7 51.6323 908.328 55.275C951.097 60.5252 994.129 64.8759 1037.3 68.6808C1088.34 73.1642 1139.45 77.3968 1190.51 81.7475C1221.4 84.3726 1252.3 86.9387 1283.17 89.6523C1314.35 92.3954 1345.58 94.9616 1376.61 98.1766C1418.64 102.527 1460.62 107.055 1502.2 113.028C1536.32 117.939 1570.12 123.44 1603.26 130.401C1636.76 137.435 1669.26 145.96 1699.75 157.183C1725 166.474 1748.3 177.329 1768.32 190.734C1789.06 204.612 1804.83 220.392 1816.11 237.928C1827.46 255.581 1833.83 273.971 1838.09 292.701C1842.75 313.157 1844.56 333.745 1846.16 354.347C1848.05 378.888 1850.37 403.399 1855.77 427.748C1857.8 436.877 1860.81 445.947 1863.96 454.972C1873.57 482.359 1888.93 508.551 1908.6 533.741C1923.91 553.37 1939.97 572.793 1955.67 592.319C1971.65 612.229 1986.06 632.581 1996.45 653.877C2007.99 677.518 2014.37 701.719 2014.56 726.451C2014.64 735.875 2014.59 745.329 2013.75 754.723C2012.96 763.542 2011.27 772.332 2009.52 781.107C2003.67 810.367 1993.9 839.199 1984.39 868.075C1977.67 888.472 1971.46 908.942 1967.16 929.604C1962.67 951.268 1960.83 973.036 1962.86 994.878C1964.82 1016 1971.01 1036.6 1982.43 1056.55C1990.29 1070.3 2000.87 1083.29 2013.2 1095.72C2027.01 1109.66 2043.14 1122.55 2060.32 1134.97C2083.09 1151.4 2107.56 1166.84 2131.78 1182.43C2155.58 1197.73 2179.05 1213.23 2200.93 1229.62C2240.76 1259.44 2271.73 1292.4 2294.04 1328.5C2303.91 1344.48 2312.49 1360.71 2321.23 1376.92C2330.77 1394.63 2340.9 1412.21 2353.51 1429.19C2366.18 1446.25 2382.23 1462 2402.21 1476.15C2412.86 1483.7 2424.86 1490.48 2437.67 1496.69C2464.4 1509.67 2494.05 1519.46 2525.38 1527.39C2535.37 1529.93 2545.66 1532.03 2555.77 1534.38C2557.13 1534.71 2558.33 1535.39 2559.45 1536.02C2559.76 1536.2 2559.74 1536.8 2559.52 1537.13C2559.31 1537.42 2558.64 1537.81 2558.18 1537.81C2556.94 1537.79 2555.7 1537.66 2554.5 1537.44C2536.11 1534.16 2518.55 1529.58 2501.17 1524.67C2482.04 1519.25 2463.71 1512.96 2446.53 1505.43C2425.93 1496.42 2407.3 1486.12 2391.27 1473.98C2380.35 1465.72 2370.76 1456.93 2362.16 1447.76C2353.9 1438.91 2347.13 1429.59 2340.71 1420.16C2328 1401.48 2318.37 1382.13 2308.12 1362.93C2295.95 1340.16 2282.81 1317.62 2265.49 1296.13C2250.7 1277.8 2233.21 1260.49 2213.26 1244.12C2192.95 1227.45 2170.59 1211.88 2147.48 1196.72C2131.78 1186.42 2115.8 1176.31 2100.01 1166.07C2078.05 1151.85 2056.42 1137.45 2037 1121.86C2014.8 1104.03 1995.83 1085.06 1982.36 1064.03C1972.32 1048.4 1965.77 1032.31 1961.9 1015.7C1957.2 995.556 1956.96 975.337 1959.11 955.117C1961.31 934.529 1966.39 914.118 1972.77 893.855C1980.42 869.565 1988.19 845.305 1995.69 821C2002.43 799.173 2007.56 777.214 2009.88 755.033C2011.89 735.964 2011.34 716.924 2007.52 697.958C2005.15 686.263 2001.4 674.701 1996.43 663.301C1985.7 638.716 1969.48 615.488 1951.25 592.747C1935.31 572.852 1918.94 553.09 1903.32 533.107C1886.54 511.648 1873.26 489.335 1863.68 466.254C1857.51 451.403 1852.95 436.331 1850.03 421.096C1846.86 404.505 1844.8 387.869 1843.42 371.19C1841.89 352.755 1840.21 334.305 1837.78 315.914C1835.22 296.521 1830.63 277.275 1822.13 258.471C1810.92 233.695 1792.52 211.293 1763.97 192.312C1743.66 178.803 1720.1 167.86 1694.49 158.525C1668.64 149.116 1641.33 141.683 1613.18 135.312C1581.47 128.144 1549.1 122.422 1516.32 117.482C1478.59 111.804 1440.5 107.188 1402.2 103.279C1369.25 99.9169 1336.23 96.7903 1303.19 93.767C1278.65 91.5253 1254.04 89.5786 1229.45 87.5581C1204.87 85.5377 1180.23 83.6647 1155.65 81.6C1125.71 79.0781 1095.77 76.4382 1065.86 73.8131C1043.18 71.8221 1020.46 70.0229 997.856 67.7075C960.511 63.873 923.165 60.0091 885.987 55.5847C850.386 51.3521 815.048 46.264 779.997 40.4681C743.392 34.4215 707.313 27.4015 671.641 19.5409C650.352 14.851 629.445 9.58605 608.73 4.04084C605.862 3.27395 603.067 2.38908 598.36 1.01752L598.432 1.00278Z" fill="white" fill-opacity="0.1"></path><path d="M0.669006 330.072C9.62899 332.461 16.8926 334.423 24.1561 336.355C46.6875 342.343 69.6729 347.49 93.1122 351.988C139.346 360.866 186.368 367.783 233.748 373.77C258.979 376.956 284.33 379.773 309.633 382.707C327.458 384.772 345.282 386.807 363.13 388.769C386.928 391.379 410.774 393.857 434.571 396.467C450.867 398.252 467.114 400.11 483.361 402.012C511.484 405.331 539.678 408.516 567.705 412.115C596.066 415.743 624.141 420.079 652.048 424.901C679.048 429.561 705.545 435.107 731.469 441.64C767.524 450.739 801.883 461.845 832.873 476.578C865.487 492.078 892.51 510.675 914.014 532.384C926.319 544.816 937.119 557.75 945.888 571.23C960.941 594.369 975.014 617.759 989.613 641.017C1001.32 659.702 1014.03 678.137 1028.96 695.953C1045.64 715.877 1064.35 735.049 1085.38 753.337C1108.79 773.674 1132.57 793.834 1155.91 814.201C1173.18 829.273 1189.1 844.906 1203.08 861.247C1218.87 879.726 1231.44 898.972 1239.92 919.25C1246.06 933.939 1250 948.805 1252.46 963.892C1256.21 986.84 1256.09 1009.79 1254.47 1032.78C1252.92 1054.56 1250.84 1076.33 1249.76 1098.13C1249.12 1111.27 1249.43 1124.45 1250.15 1137.61C1251.34 1159.49 1256.74 1181.03 1267.4 1201.95C1276.88 1220.61 1290.43 1238.1 1307.85 1254.47C1326.46 1271.95 1348.18 1287.83 1371.98 1302.65C1387.65 1312.41 1403.59 1322.02 1419.55 1331.6C1444.61 1346.69 1469.92 1361.63 1493.28 1377.75C1523.6 1398.65 1549.79 1421.25 1568.52 1446.96C1582.72 1466.43 1592.06 1486.78 1597.86 1507.78C1601.81 1522.13 1604.29 1536.58 1605.73 1551.09C1606.51 1559.13 1607.49 1567.17 1608.31 1575.21C1608.62 1578.27 1607.49 1579.87 1605.58 1579.51C1602.09 1578.86 1603.46 1576.93 1603.29 1575.52C1601.95 1564.15 1600.99 1552.76 1599.44 1541.42C1596.38 1518.86 1590.79 1496.54 1579.92 1474.86C1570.55 1456.22 1557.56 1438.57 1540.95 1421.9C1516.72 1397.63 1486.26 1376.57 1453.79 1356.54C1429.03 1341.28 1403.64 1326.4 1378.76 1311.2C1356.35 1297.52 1335.13 1283.15 1316.35 1267.48C1294.06 1248.85 1276.36 1228.71 1264.55 1206.73C1255.83 1190.46 1250.31 1173.73 1247.56 1156.65C1243.86 1133.71 1243.81 1110.75 1245.61 1087.76C1247.04 1069.31 1248.76 1050.88 1249.91 1032.43C1251.03 1014.17 1251.32 995.88 1249.36 977.637C1246.63 952.256 1239.78 927.303 1226.16 903.205C1217.12 887.233 1205.7 871.91 1192.28 857.132C1172.61 835.497 1149.43 815.322 1125.8 795.309C1104.99 777.685 1083.63 760.327 1063.99 742.202C1040.08 720.11 1019.38 696.926 1001.75 672.695C987.653 653.331 975.826 633.407 963.473 613.615C954.322 598.956 945.267 584.267 935.375 569.799C923.094 551.836 907.826 534.817 889.094 519.066C873.993 506.368 856.575 494.954 837.03 484.763C821.189 476.489 804.296 469.13 786.376 462.744C761.551 453.896 735.746 446.271 708.747 440.18C691.4 436.272 674.078 432.378 656.373 429.134C629.517 424.208 602.446 419.769 575.088 416.141C542.115 411.776 509.047 407.735 475.931 403.841C441.883 399.83 407.715 396.187 373.62 392.353C334.506 387.943 295.369 383.651 256.351 379.021C206.032 373.048 156.119 365.983 106.923 357.09C84.0327 352.961 61.2624 348.566 39.2806 342.755C28.7675 339.968 18.135 337.328 7.59806 334.57C5.56713 334.039 3.63178 333.332 1.81588 332.579C1.31413 332.358 1.36191 331.636 0.716793 330.102L0.669006 330.072Z" fill="white" fill-opacity="0.1"></path><path d="M0.884064 381.321C2.50881 380.274 3.99019 380.835 5.44768 381.13C11.1821 382.31 16.8926 383.519 22.6031 384.728C54.2139 391.439 86.3265 397.146 118.726 402.131C162.857 408.915 207.083 415.448 251.334 421.922C293.123 428.043 335.056 433.839 376.821 440.003C426.663 447.363 476.05 455.754 524.458 466.196C559.629 473.791 594.059 482.58 626.674 493.804C649.492 501.664 671.091 510.631 690.899 521.249C718.28 535.938 741.027 552.928 759.974 571.997C779.184 591.331 793.998 611.964 808.191 632.802C822.24 653.435 836.098 674.141 852.226 694.198C867.399 713.046 884.65 731.171 904.266 748.396C920.752 762.864 938.672 776.653 957.596 789.926C972.744 800.545 988.06 811.06 1003.52 821.487C1026.29 836.84 1048.87 852.295 1069.49 868.798C1093.12 887.69 1113.52 907.806 1128.6 929.81C1141.31 948.348 1150.08 967.609 1154.67 987.563C1156.36 994.952 1158.2 1002.36 1159.09 1009.79C1160.28 1019.77 1161.17 1029.8 1161.17 1039.8C1161.17 1058.26 1160.5 1076.73 1159.9 1095.18C1159.3 1114.23 1157.73 1133.27 1159.26 1152.34C1160.43 1167.07 1162.12 1181.75 1166.26 1196.3C1172.92 1219.69 1184.63 1242.05 1202.86 1262.99C1216.29 1278.42 1232.34 1292.8 1250.53 1306.31C1271.51 1321.9 1294.32 1336.39 1317.36 1350.79C1335.25 1361.95 1353.53 1372.88 1371.28 1384.13C1391.07 1396.65 1409.56 1409.9 1426.6 1423.89C1437.68 1433.01 1447.6 1442.62 1456.61 1452.59C1468.24 1465.5 1477.78 1478.98 1485.4 1492.97C1494.26 1509.23 1500.05 1525.93 1503.99 1542.87C1506.31 1552.78 1507.74 1562.76 1509.48 1572.73C1509.79 1574.48 1509.96 1576.27 1509.79 1578.02C1509.75 1578.57 1508.38 1579.06 1507.64 1579.57C1506.78 1579.09 1505.45 1578.67 1505.18 1578.08C1504.61 1576.77 1504.47 1575.38 1504.3 1574.01C1502.22 1556.55 1498.33 1539.25 1492.47 1522.11C1480.88 1488.19 1458.69 1457.17 1425.86 1429.03C1407.96 1413.69 1388.06 1399.41 1366.79 1385.86C1346.44 1372.88 1325.46 1360.29 1304.93 1347.41C1281.95 1332.99 1259.25 1318.4 1238.87 1302.5C1223.43 1290.46 1209.62 1277.73 1197.96 1264.17C1180.52 1243.91 1168.91 1222.36 1162.19 1199.79C1156.13 1179.42 1153.95 1158.83 1154.17 1138.18C1154.38 1116.39 1155.5 1094.57 1156.13 1072.78C1156.67 1053.32 1156.94 1033.87 1154.52 1014.45C1151.42 989.451 1144.01 964.999 1129.79 941.417C1120.33 925.71 1108.08 910.844 1093.6 896.701C1074.17 877.721 1051.52 860.23 1027.2 843.579C1005.24 828.566 982.803 813.818 960.941 798.76C930.333 777.671 901.518 755.726 877.171 731.628C862.835 717.455 850.052 702.796 838.201 687.768C822.169 667.431 808.741 646.415 794.142 625.709C783.963 611.3 773.474 596.98 760.954 583.294C745.734 566.658 728.148 551.04 706.74 537.177C687.1 524.464 665.166 513.448 641.105 504.083C614.13 493.568 585.601 484.955 556.093 477.492C509.477 465.679 461.499 456.491 412.828 448.631C375.292 442.569 337.588 436.892 299.861 431.287C269.254 426.73 238.455 422.675 207.848 418.132C173.226 412.985 138.653 407.646 104.151 402.204C72.3967 397.19 41.1204 391.188 10.1069 384.669C7.40694 384.109 4.75478 383.416 2.1743 382.664C1.55308 382.472 1.33804 381.764 0.955744 381.336L0.884064 381.321Z" fill="white" fill-opacity="0.1"></path><path d="M0.931824 427.88C3.20169 426.597 5.2804 427.467 7.28744 427.851C26.187 431.317 45.0389 434.871 63.9623 438.292C89.3131 442.864 114.712 447.318 140.062 451.86C175.186 458.143 210.357 464.367 245.432 470.797C283.852 477.846 321.891 485.663 359.188 494.747C398.588 504.348 437.032 515.217 473.302 528.874C506.347 541.306 536.715 555.818 563.189 573.28C581.061 585.063 596.687 597.909 610.593 611.624C623.448 624.307 634.63 637.507 645.095 650.972C657.352 666.722 669.562 682.488 682.058 698.165C699.213 719.697 718.448 740.521 741.194 759.988C758.684 774.972 777.799 789.145 798.371 802.609C824.582 819.776 852.489 835.851 880.349 851.956C901.709 864.3 922.926 876.747 943.546 889.548C963.521 901.951 981.895 915.254 998.166 929.633C1019.48 948.451 1035.97 968.774 1046.98 990.66C1055.39 1007.38 1060.38 1024.59 1063.2 1042.06C1067.31 1067.53 1066.62 1093.05 1066.43 1118.6C1066.29 1137.46 1066.24 1156.31 1066.84 1175.17C1067.5 1195.85 1071.81 1216.29 1079.31 1236.46C1085.83 1253.98 1095.89 1270.72 1109.08 1286.69C1122.55 1303.01 1139.14 1318.12 1157.73 1332.4C1178.9 1348.64 1202.22 1363.66 1225.58 1378.68C1250.93 1394.96 1276.74 1410.96 1300.51 1428.17C1328.3 1448.3 1352.43 1469.91 1370.57 1493.92C1386.93 1515.58 1397.57 1538.37 1404.52 1561.85C1405.88 1566.48 1406.98 1571.15 1408.1 1575.81C1408.34 1576.77 1408.32 1577.76 1408.22 1578.73C1408.2 1579.01 1407.46 1579.48 1407 1579.5C1406.14 1579.54 1404.78 1579.5 1404.45 1579.17C1403.64 1578.38 1402.99 1577.43 1402.8 1576.49C1400.15 1563.81 1395.94 1551.3 1390.69 1538.96C1380.7 1515.46 1365.86 1493.19 1345.53 1472.34C1328.23 1454.6 1307.85 1438.33 1285.75 1422.82C1262.21 1406.28 1237 1390.73 1212.27 1374.89C1194.38 1363.43 1176.86 1351.76 1160.31 1339.57C1139.4 1324.18 1120.79 1307.78 1105.73 1289.94C1091.25 1272.79 1080.74 1254.72 1073.67 1235.86C1065.83 1214.89 1062.37 1193.61 1061.63 1172.16C1060.98 1152.92 1061.08 1133.67 1061.39 1114.42C1061.7 1095.37 1061.84 1076.32 1059.93 1057.29C1057.59 1033.89 1051.69 1010.85 1039.69 988.492C1028.49 967.638 1012.24 948.392 991.763 930.474C971.31 912.584 947.441 896.524 921.851 881.452C892.869 864.374 863.121 847.768 834.139 830.704C807.665 815.116 781.956 799.04 758.756 781.505C734.767 763.365 713.024 744.252 694.96 723.635C684.376 711.556 673.982 699.389 664.019 687.104C654.485 675.35 645.716 663.36 636.422 651.517C621.417 632.404 604.668 613.881 584.239 596.744C568.35 583.441 550.31 571.318 530.336 560.257C498.104 542.412 461.929 528.313 423.557 516.205C399.161 508.507 374.097 501.738 348.603 495.588C318.665 488.376 288.344 481.843 257.618 476.017C237.547 472.213 217.548 468.304 197.406 464.662C167.181 459.19 136.837 453.984 106.612 448.527C73.9497 442.628 41.3832 436.567 8.76883 430.565C6.64232 430.166 4.49193 429.753 2.48489 429.193C1.79198 429.001 1.43358 428.323 0.931824 427.88Z" fill="white" fill-opacity="0.1"></path><path d="M2558.38 1465.01C2549.46 1462.21 2541.79 1458.74 2534.15 1455.29C2496.44 1438.32 2467.77 1416.58 2445.57 1391.37C2429.76 1373.4 2417.02 1354.55 2404.36 1335.69C2389.47 1313.54 2373.99 1291.56 2354.88 1270.66C2338.75 1253.03 2320.37 1236.29 2299.66 1220.55C2275.74 1202.38 2249.65 1185.48 2222.72 1169.02C2199.21 1154.64 2175.84 1140.17 2152.88 1125.46C2131.45 1111.71 2111.76 1097.04 2094.27 1081.29C2075.64 1064.49 2061.16 1046.36 2051.19 1026.97C2043.76 1012.52 2039.22 997.651 2036.98 982.534C2033.89 961.71 2034.97 940.96 2038.03 920.15C2041.59 895.861 2048.23 871.895 2055.54 847.974C2063.23 822.696 2071.12 797.419 2076.61 771.905C2078.67 762.378 2079.53 752.747 2081.11 743.176C2083.23 730.242 2083.14 717.279 2082.42 704.315C2081.58 689.376 2078.43 674.598 2073.53 659.939C2066.08 637.699 2054.16 616.388 2038.77 595.83C2026.89 579.961 2014.18 564.358 2002.04 548.563C1990.46 533.476 1978.68 518.447 1967.83 503.169C1956.69 487.506 1948.21 471.24 1941.14 454.692C1934.74 439.65 1929.98 424.415 1926.95 409.003C1924.34 395.76 1922.6 382.413 1921.5 369.081C1919.9 349.658 1919.25 330.205 1918.08 310.768C1916.91 291.124 1914.57 271.524 1909.05 252.13C1904.75 237.014 1898.35 222.251 1888.77 208.019C1872.57 183.921 1847.69 163.938 1815.22 147.317C1792.79 135.828 1768.15 126.522 1742.25 118.455C1709.23 108.161 1674.71 100.153 1639.34 93.5166C1620.49 89.9771 1601.64 86.3934 1582.6 83.2963C1561.07 79.801 1539.45 76.5123 1517.65 73.6954C1473.76 68.0175 1429.85 62.4133 1385.76 57.3695C1340.72 52.2078 1295.45 47.8866 1250.31 42.9756C1204.87 38.035 1159.42 33.0797 1114.14 27.6673C1077.61 23.2871 1041.25 18.3761 1004.93 13.3618C982.588 10.2795 960.463 6.56304 938.242 3.12678C934.945 2.61061 931.6 2.13867 927.347 0.604893C934.3 -0.0145187 939.819 0.029725 945.362 0.89985C966.627 4.26237 987.845 7.81661 1009.21 10.8694C1038.02 14.9988 1066.96 18.8628 1095.89 22.6235C1147.28 29.2895 1198.97 34.9822 1250.72 40.4979C1284.27 44.0817 1317.86 47.4737 1351.36 51.2639C1390.16 55.644 1428.84 60.3781 1467.6 64.9204C1505.73 69.4038 1543.51 74.8163 1581.07 80.8039C1629.16 88.4728 1676.52 97.5723 1722.09 109.946C1745.72 116.361 1768.58 123.706 1790.11 132.51C1820.93 145.09 1847.91 160.207 1868.84 179.128C1884.42 193.183 1895.46 208.58 1903.29 224.891C1911.37 241.733 1915.72 258.973 1918.51 276.39C1921.31 293.793 1922.12 311.284 1922.89 328.76C1923.86 350.764 1924.68 372.768 1928.19 394.683C1930.58 409.549 1934.23 424.282 1939.2 438.927C1945.66 458.025 1955 476.563 1966.44 494.703C1976.26 510.262 1987.85 525.349 1999.85 540.319C2010 552.987 2020.2 565.656 2030.21 578.368C2043.86 595.697 2055.99 613.424 2065.6 631.755C2072.17 644.291 2077.07 657.107 2080.51 670.1C2085.72 689.744 2087.61 709.551 2086.1 729.431C2084.81 746.317 2082.54 763.159 2078.02 779.839C2073.51 796.489 2068.87 813.125 2064.17 829.761C2059.67 845.615 2054.73 861.424 2050.5 877.308C2045.84 894.755 2042.16 912.275 2040.37 929.943C2039.27 940.738 2038.6 951.534 2038.98 962.344C2039.84 987.283 2046.15 1011.66 2060.27 1035.08C2070.4 1051.91 2084.28 1067.57 2100.79 1082.36C2112.19 1092.57 2124.78 1102.21 2138 1111.49C2150.8 1120.47 2164.42 1129.04 2178.04 1137.56C2195.7 1148.61 2213.86 1159.35 2231.51 1170.38C2259.26 1187.71 2286.66 1205.23 2310.91 1224.52C2335 1243.66 2356.29 1263.89 2373.51 1285.68C2383.69 1298.55 2393.42 1311.57 2402.9 1324.66C2409.54 1333.78 2415.18 1343.18 2421.73 1352.35C2432.89 1368 2444.67 1383.46 2458.96 1398.13C2472.96 1412.51 2489.56 1425.66 2509.13 1437.31C2522.2 1445.1 2536.39 1452.08 2551.69 1458.17C2554.07 1459.13 2556.44 1460.14 2558.57 1461.29C2560.14 1462.15 2560.41 1463.32 2558.33 1464.98L2558.38 1465.01Z" fill="white" fill-opacity="0.1"></path><path d="M0.0955446 472.95C5.37596 474.012 8.67324 474.631 11.9227 475.325C53.7838 484.129 95.7882 492.639 137.41 501.827C179.988 511.221 221.634 522.075 261.823 534.891C290.71 544.094 318.498 554.462 344.47 566.57C364.803 576.053 383.798 586.465 401.36 597.909C426.448 614.264 447.33 632.493 466.254 651.665C478.344 663.921 488.929 676.677 499.848 689.316C515.57 707.515 530.67 725.921 547.802 743.633C568.254 764.752 591.24 784.735 617.618 803.2C639.122 818.257 661.988 832.459 686.669 845.497C712.785 859.271 739.354 872.721 765.804 886.26C797.152 902.32 828.739 918.204 857.578 936.034C878.557 948.997 897.408 962.993 913.489 978.434C933.487 997.636 947.321 1018.39 956.305 1040.45C961.825 1054.02 965.05 1067.79 967.081 1081.7C970.856 1107.17 970.45 1132.73 970.594 1158.27C970.713 1177.13 970.689 1195.99 973.031 1214.83C975.611 1235.65 980.724 1256.21 990.377 1276.25C999.958 1296.13 1013.84 1314.83 1031.47 1332.49C1047.39 1348.43 1065.81 1363.21 1085.88 1377.19C1104.47 1390.12 1123.58 1402.75 1142.7 1415.4C1162.67 1428.61 1182.81 1441.74 1201.55 1455.63C1224.17 1472.41 1244.75 1490.05 1261.54 1509.37C1277.91 1528.16 1290.6 1547.78 1299.39 1568.38C1300.78 1571.61 1302.14 1574.84 1303.36 1578.08C1303.52 1578.51 1302.64 1579.5 1302.23 1579.5C1301.11 1579.5 1299.37 1579.32 1298.98 1578.86C1297.86 1577.48 1297.17 1575.94 1296.52 1574.44C1291.36 1562.46 1285.44 1550.65 1278 1539.15C1266.15 1520.83 1251.17 1503.55 1233.3 1487.22C1220.47 1475.5 1206.32 1464.39 1191.46 1453.61C1165.44 1434.75 1137.3 1417.11 1110.08 1398.94C1088.27 1384.37 1066.98 1369.52 1047.84 1353.53C1020.96 1331.09 999.839 1306.75 986.435 1280.04C980.223 1267.65 975.898 1254.97 972.72 1242.13C966.388 1216.39 965.719 1190.48 965.361 1164.54C965.098 1145.68 965.361 1126.81 964.477 1107.95C963.569 1088.1 960.415 1068.34 953.629 1048.88C945.936 1026.84 933.344 1005.89 914.683 986.486C903.645 974.998 890.766 964.276 876.597 954.115C852.632 936.933 825.466 921.817 797.367 907.32C768.098 892.203 738.255 877.514 708.795 862.53C683.492 849.655 658.953 836.25 635.92 821.826C598.67 798.495 566.438 772.745 539.463 744.518C526.202 730.64 513.873 716.453 501.807 702.177C489.454 687.561 476.958 672.976 463.626 658.7C450.747 644.925 436.817 631.534 420.809 619.013C403.032 605.106 383.631 592.157 361.912 580.536C325.857 561.216 285.597 545.908 243.09 532.738C215.494 524.184 187.276 516.442 158.389 509.731C127.136 502.461 95.6687 495.573 64.1774 488.686C45.2778 484.557 26.2109 480.781 7.21575 476.829C5.42375 476.46 3.60786 476.047 1.93533 475.487C1.338 475.295 1.19464 474.587 0.0238647 472.965L0.0955446 472.95Z" fill="white" fill-opacity="0.1"></path><path d="M1194.74 1578.85C1193.06 1579.91 1191.37 1580.03 1190.34 1579.1C1188.93 1577.83 1187.9 1576.37 1186.95 1574.93C1178.23 1561.61 1168.36 1548.66 1156.53 1536.27C1144.42 1523.56 1131.09 1511.38 1116.41 1499.73C1094.31 1482.18 1070.13 1465.79 1045.57 1449.57C1020.15 1432.79 994.63 1416.05 971.072 1398.25C948.469 1381.15 928.374 1363.07 912.39 1343.27C897.098 1324.33 886.37 1304.49 879.489 1283.8C873.348 1265.27 869.979 1246.55 869.071 1227.66C868.115 1207.82 867.614 1187.99 866.921 1168.15C866.371 1152.24 865.846 1136.32 863.48 1120.47C860.637 1101.46 855.739 1082.7 846.444 1064.41C833.661 1039.34 813.424 1016.87 785.97 996.81C763.702 980.528 738.303 966.311 711.614 952.89C687.171 940.605 661.582 929.264 636.183 917.79C609.47 905.727 582.566 893.84 556.212 881.481C522.714 865.775 491.175 848.667 462.789 829.436C433.735 809.762 408.575 788.334 387.095 765.253C374.097 751.287 361.936 737.04 350.204 722.661C337.039 706.542 323.85 690.422 309.227 674.775C295.369 659.953 279.982 645.78 262.659 632.404C230.69 607.746 192.102 587.762 149.094 570.905C115.452 557.721 80.1859 546.439 43.6292 536.676C31.0852 533.328 18.5412 529.951 6.0211 526.559C4.32467 526.101 2.72382 525.452 1.19465 524.804C0.860145 524.671 0.812358 524.037 1.0274 523.742C1.24244 523.461 1.98313 523.122 2.4371 523.167C3.67955 523.255 4.92201 523.462 6.09278 523.756C41.9088 533.003 77.486 542.516 111.749 553.872C142.954 564.21 172.94 575.654 200.728 589.208C225.003 601.05 247.128 614.249 266.864 629.012C291.498 647.417 311.903 667.504 329.919 688.579C339.572 699.861 349.081 711.202 358.71 722.484C369.844 735.507 380.62 748.647 392.304 761.478C414.835 786.225 441.668 809.113 472.968 829.923C493.994 843.904 516.74 856.764 540.634 868.886C571.384 884.475 603.664 898.795 635.849 913.219C662.872 925.327 689.943 937.42 715.891 950.428C738.9 961.946 760.978 974.098 780.976 987.622C806.064 1004.57 826.637 1023.41 841.068 1044.62C851.199 1059.52 858.295 1074.99 862.811 1090.93C870.027 1116.39 871.556 1142.08 872.082 1167.83C872.488 1187.85 872.87 1207.9 874.184 1227.91C875.833 1253.29 881.161 1278.41 892.749 1302.89C898.914 1315.91 906.87 1328.52 916.595 1340.72C934.993 1363.8 958.934 1384.53 986.053 1403.94C1000.17 1414.06 1014.92 1423.83 1029.44 1433.73C1052.52 1449.44 1075.99 1464.92 1098.64 1480.86C1125.37 1499.67 1149.08 1519.89 1168.07 1542.02C1177.15 1552.6 1184.58 1563.7 1192.66 1574.59C1193.69 1575.97 1194.12 1577.54 1194.76 1578.88L1194.74 1578.85Z" fill="white" fill-opacity="0.1"></path><path d="M-5.89341e-06 580.757C4.34857 582.173 6.95294 582.91 9.34227 583.825C44.4176 597.171 77.1992 612.347 106.038 630.59C129.478 645.397 149.5 661.811 166.942 679.509C184.528 697.339 199.175 716.054 213.487 734.902C228.062 754.118 242.374 773.409 258.979 791.991C285.286 821.413 317.709 847.989 357.42 871.084C376.439 882.145 396.366 892.498 417.249 902.217C448.023 916.522 480.064 929.692 512.081 942.891C549.928 958.465 588.014 973.862 623.52 991.486C647.628 1003.45 670.398 1016.26 690.636 1030.74C707.552 1042.85 722.103 1055.98 733.524 1070.31C746.355 1086.43 755.387 1103.35 760.858 1121.03C765.828 1137.09 768.791 1153.27 770.129 1169.57C771.276 1183.3 772.04 1197.04 772.351 1210.79C772.9 1234.37 773.856 1257.94 777.99 1281.4C783.079 1310.29 794.118 1338.27 814.355 1364.64C826.374 1380.3 840.972 1395.02 857.626 1408.98C883.359 1430.55 912.963 1450 942.734 1469.39C970.522 1487.5 998.477 1505.52 1023.97 1524.92C1044.28 1540.34 1062.63 1556.61 1078.38 1573.97C1079.48 1575.16 1080.72 1576.34 1081.46 1577.61C1081.79 1578.17 1081.03 1578.97 1080.77 1579.65C1079.59 1579.42 1078.16 1579.4 1077.35 1578.94C1076.23 1578.3 1075.49 1577.36 1074.72 1576.52C1060.07 1560.37 1043.23 1545.12 1024.62 1530.62C1009.59 1518.93 993.675 1507.69 977.164 1496.79C953.247 1481.01 929.115 1465.36 905.245 1449.56C884.625 1435.88 865.129 1421.62 847.615 1406.39C826.541 1388.06 809.075 1368.52 796.507 1347.34C783.151 1324.85 775.792 1301.62 771.993 1277.87C767.978 1252.82 767.596 1227.67 766.64 1202.53C765.9 1183.08 764.848 1163.65 761.049 1144.3C757.202 1124.72 750.704 1105.52 739.02 1087.13C727.575 1069.09 711.638 1052.66 691.854 1037.54C667.244 1018.77 638.309 1002.92 607.535 988.226C572.531 971.502 535.377 956.695 498.534 941.594C480.518 934.205 462.789 926.551 444.893 919.044C423.031 909.871 401.957 900.049 381.624 889.637C344.446 870.612 311.258 849.257 283.637 824.761C265.072 808.287 248.992 790.885 234.919 772.789C218.265 751.375 202.209 729.77 185.197 708.474C167.994 686.942 147.828 666.487 123.05 647.875C107.448 636.165 90.2689 625.414 71.5604 615.577C51.1794 604.855 29.5321 595.21 6.83348 586.45C4.94591 585.727 2.98666 585.019 1.38581 584.09C0.669006 583.677 0.740686 582.733 -0.0716858 580.728L-5.89341e-06 580.757Z" fill="white" fill-opacity="0.1"></path><path d="M1299.17 1.17993C1304.45 0.0295933 1309.35 0.324551 1314.39 1.07669C1345.93 5.76652 1377.52 10.3679 1409.11 14.9545C1443.16 19.895 1477.28 24.7028 1511.28 29.7466C1545.9 34.8641 1580.52 39.9964 1615 45.4973C1646.39 50.4969 1677.62 56.0126 1708.37 62.3984C1747.6 70.5392 1786.24 79.5944 1822.92 91.5845C1856.56 102.601 1887.91 115.565 1914.55 132.539C1942.5 150.355 1962.4 171.135 1974.54 194.746C1982.76 210.718 1987.23 227.147 1989.67 243.842C1992.82 265.403 1992.56 287.009 1992.73 308.629C1992.84 323.569 1992.73 338.508 1993.51 353.418C1994.83 378.8 1999.34 403.989 2008.81 428.736C2013.7 441.537 2019.92 454.132 2027.18 466.52C2038.79 486.297 2052.96 505.366 2067.8 524.287C2081.94 542.309 2096.35 560.258 2109.83 578.471C2117.07 588.279 2122.87 598.499 2128.8 608.66C2132.76 615.488 2136.11 622.464 2139.17 629.469C2145.4 643.716 2149.56 658.183 2151.83 672.887C2154.12 687.797 2154.48 702.722 2153.41 717.632C2152.43 731.362 2150.54 745.078 2147.29 758.69C2144.23 771.506 2141.25 784.337 2137.92 797.123C2134.17 811.473 2129.94 825.764 2126.15 840.099C2121.56 857.354 2117.52 874.638 2114.92 892.055C2112.91 905.358 2111.55 918.675 2111.4 932.052C2111.14 956.386 2116.01 980.248 2127.89 1003.51C2133.55 1014.6 2141.27 1025.13 2150.06 1035.39C2169.73 1058.37 2196.27 1078.11 2225.28 1096.71C2250.01 1112.57 2276.43 1127.34 2302.6 1142.3C2325.94 1155.64 2349.21 1169.05 2371.19 1183.25C2399.15 1201.33 2424.93 1220.49 2447.46 1241.3C2464.81 1257.32 2480.41 1273.95 2495.3 1290.87C2509.87 1307.43 2525 1323.81 2540.17 1340.17C2544.9 1345.27 2550.75 1349.96 2555.89 1354.92C2557.56 1356.54 2558.83 1358.37 2559.86 1360.2C2560.26 1360.93 2559.57 1361.92 2559.19 1363.6C2557.18 1362.35 2556.01 1361.76 2555.15 1361.04C2544.9 1352.51 2535.7 1343.56 2527.41 1334.27C2513.77 1318.96 2500.34 1303.57 2486.81 1288.23C2464.71 1263.19 2440.87 1238.84 2412 1216.49C2393.54 1202.2 2374.06 1188.43 2352.7 1175.76C2324.94 1159.29 2296.72 1143.11 2268.98 1126.64C2249.96 1115.34 2230.89 1104.04 2212.71 1092.23C2185.88 1074.8 2162.18 1055.85 2144.3 1034.34C2128.8 1015.69 2118.21 996.057 2112.91 975.278C2107.63 954.586 2106.72 933.866 2108.8 912.997C2110.26 898.279 2112.36 883.605 2115.63 869.019C2119.14 853.268 2123.68 837.621 2127.75 821.914C2133.5 799.616 2139.86 777.376 2144.78 755.018C2150.44 729.268 2152.21 703.356 2148.96 677.4C2147.53 666.029 2144.71 654.777 2140.98 643.613C2131.66 615.71 2114.7 589.503 2094.92 563.93C2080.25 544.979 2065.15 526.146 2050.57 507.165C2038.72 491.709 2028.06 475.929 2019.37 459.692C2009.26 440.829 2001.57 421.598 1996.93 401.909C1991.12 377.148 1989.36 352.253 1989.17 327.285C1989.05 310.384 1989.24 293.498 1988.81 276.597C1988.35 258.118 1986.35 239.697 1980.97 221.469C1975.21 202.017 1965.53 183.346 1949.79 166.061C1937.39 152.464 1921.83 140.356 1903.58 129.501C1878.11 114.37 1848.86 102.616 1817.75 92.5431C1789.56 83.4141 1760.1 76.0697 1730.16 69.3742C1679.84 58.1215 1628.33 49.435 1576.48 41.5006C1530.51 34.4807 1484.25 28.1243 1438.14 21.473C1395.39 15.3232 1352.65 9.17328 1309.9 3.00867C1306.29 2.49249 1302.76 1.81409 1299.17 1.22417V1.17993Z" fill="white" fill-opacity="0.1"></path><path d="M1.48139 663.714C5.08927 665.218 7.04852 667.032 9.17503 668.699C31.6108 686.175 50.2237 705.141 65.3482 725.345C78.4178 742.807 90.6751 760.504 103.243 778.113C118.009 798.775 132.942 819.393 152.009 838.742C178.722 865.819 212.005 889.386 250.951 910.018C279.767 925.268 310.541 938.85 342.343 951.563C378.924 966.178 415.863 980.469 452.515 995.025C481.713 1006.62 510.026 1018.98 536.62 1032.77C562.042 1045.93 585.266 1060.45 604.859 1077.07C629.923 1098.33 647.102 1121.78 656.492 1147.42C664.305 1168.76 668.104 1190.41 669.419 1212.23C670.757 1234.6 671.951 1256.99 673.743 1279.36C675.368 1299.6 679.048 1319.69 686.096 1339.51C696.729 1369.4 715.891 1396.99 743.464 1422.45C763.534 1440.97 786.806 1457.86 811.655 1473.92C836.696 1490.11 862.596 1505.79 887.803 1521.88C915.472 1539.53 942.328 1557.64 965.791 1577.55C966.149 1577.86 966.341 1578.25 966.627 1578.63C965.695 1580.24 963.76 1580.09 962.231 1579.22C960.152 1578.04 958.36 1576.62 956.664 1575.21C938.409 1560.05 918.219 1545.9 896.931 1532.36C873.443 1517.42 849.693 1502.63 826.039 1487.8C803.484 1473.65 781.645 1459.11 761.647 1443.57C742.819 1428.92 726.332 1413.35 712.689 1396.6C692.738 1372.11 680.935 1346.2 674.579 1319.18C669.777 1298.73 668.009 1278.16 666.814 1257.52C665.787 1239.46 664.879 1221.39 663.135 1203.35C660.96 1180.77 656.301 1158.37 645.836 1136.59C633.172 1110.22 611.955 1086.76 582.949 1065.86C556.045 1046.48 524.625 1030.3 491.294 1015.39C460.854 1001.78 429.076 989.45 397.274 977.136C366.547 965.249 335.796 953.362 306.025 940.591C270.687 925.43 237.045 908.986 207.298 889.696C188.614 877.588 171.649 864.639 156.621 850.702C140.349 835.615 126.348 819.776 114.449 803.229C100.639 784.027 87.0672 764.766 73.4719 745.491C62.6721 730.183 50.821 715.184 37.2019 700.746C27.7401 690.732 17.466 681.043 5.73439 671.973C4.34858 670.896 2.98666 669.805 1.76811 668.654C0.310614 667.268 -0.215038 665.779 1.45749 663.714H1.48139Z" fill="white" fill-opacity="0.1"></path><path d="M1570.67 1.01764C1575.95 -0.0884538 1579.49 0.575201 1583.1 1.20936C1599.32 4.04095 1615.55 6.81356 1631.77 9.64515C1651.96 13.1699 1672.2 16.6209 1692.31 20.2931C1739.89 28.9796 1787.08 38.4035 1832.93 50.1724C1861.43 57.4873 1889.24 65.7461 1915.6 75.7452C1940.92 85.3461 1964.44 96.3627 1985.01 109.695C2009.52 125.578 2027.63 143.792 2039.01 164.645C2049.88 184.555 2054.92 205.025 2056.64 225.923C2058.29 245.965 2057.71 265.978 2057.02 286.021C2056.4 304.087 2056.28 322.168 2056.85 340.234C2057.6 363.447 2061.73 386.498 2069.92 409.195C2076.88 428.397 2086.75 447.053 2099.07 465.207C2109.04 479.882 2120.17 494.216 2131.62 508.478C2146.02 526.426 2160.74 544.271 2173.81 562.617C2185.35 578.825 2195.56 595.343 2202.91 612.45C2210.27 629.558 2215.05 646.96 2217.08 664.673C2218.35 675.866 2218.95 687.06 2218.23 698.239C2217.39 711.187 2216.46 724.136 2213.45 736.982C2211.09 747.084 2209.51 757.26 2207.1 767.362C2203.03 784.263 2198.33 801.091 2194.31 817.992C2191.23 830.999 2188.48 844.051 2186.14 857.133C2184.13 868.459 2182.63 879.815 2181.41 891.171C2179.64 907.674 2180.19 924.132 2183.23 940.605C2186.02 955.707 2191.35 970.396 2199.23 984.775C2204.35 994.111 2210.97 1003.03 2218.54 1011.68C2233.78 1029.05 2253.02 1044.62 2274.62 1059.18C2303.27 1078.5 2335.26 1095.58 2367.25 1112.67C2391.79 1125.78 2416.26 1138.94 2440.72 1152.09C2466.7 1166.06 2490.85 1181.14 2513.41 1197.17C2528.41 1207.84 2542.34 1219.09 2556.65 1230.12C2558.02 1231.17 2559.04 1232.45 2559.74 1233.72C2560.17 1234.5 2559.64 1235.49 2559.47 1237.19C2557.68 1236.15 2556.68 1235.73 2556.01 1235.17C2539.55 1220.92 2521.75 1207.32 2502.89 1194.28C2483.18 1180.66 2462.47 1167.58 2440.27 1155.47C2407.13 1137.39 2373.58 1119.6 2340.32 1101.59C2316.41 1088.63 2292.97 1075.36 2271.44 1060.85C2244.85 1042.93 2221.84 1023.49 2205.57 1001.23C2194.38 985.955 2186.64 969.998 2182.27 953.421C2177.4 934.913 2175.75 916.301 2177.4 897.615C2178.59 884.092 2180.17 870.538 2182.75 857.088C2186.09 839.538 2190.49 822.077 2194.67 804.586C2199.09 786.136 2204.2 767.731 2208.22 749.252C2213.76 723.708 2216.58 698.032 2214.62 672.238C2213 650.765 2207.33 629.676 2197.66 609.014C2189.94 592.57 2179.95 576.672 2168.72 561.024C2157.49 545.406 2145 530.172 2132.79 514.834C2117.35 495.455 2101.82 476.077 2089.4 455.857C2076.83 435.431 2067.32 414.489 2061.61 392.884C2056.93 375.201 2054.73 357.415 2053.65 339.526C2052.41 319.277 2053.92 299.072 2054.2 278.838C2054.49 258.413 2055.11 237.972 2052.43 217.576C2050.36 201.663 2046.01 185.986 2038.43 170.722C2025.87 145.399 2003.74 123.705 1972.65 105.403C1949.22 91.5992 1922.84 80.376 1894.62 70.7309C1863.65 60.1567 1831.25 51.5586 1798.14 43.875C1767.17 36.6928 1735.82 30.2332 1704.05 24.57C1664.02 17.432 1623.91 10.4858 1583.84 3.45104C1579.92 2.75789 1576.03 2.02049 1570.72 1.04713L1570.67 1.01764Z" fill="white" fill-opacity="0.1"></path><path d="M847.758 1579.06C846.014 1580.22 844.246 1579.76 842.812 1578.92C839.587 1577.04 836.457 1575.07 833.398 1573.07C809.792 1557.63 784.656 1543.16 759.64 1528.62C731.374 1512.19 703.443 1495.55 677.71 1477.58C651.045 1458.93 627.868 1438.79 610.331 1416.33C597.595 1399.99 588.11 1382.91 581.706 1365.2C574.753 1345.98 570.715 1326.51 569.091 1306.85C567.179 1283.7 565.531 1260.55 563.285 1237.41C561.086 1214.83 556.738 1192.4 546.942 1170.52C532.176 1137.61 504.555 1109.32 466.111 1084.9C438.681 1067.47 407.763 1052.72 375.125 1039.3C353.143 1030.27 330.683 1021.69 308.271 1013.08C276.398 1000.82 244.213 988.905 212.483 976.516C175.042 961.901 139.417 945.752 107.209 926.875C70.4136 905.313 40.0452 880.773 17.1793 852.752C12.4484 846.971 7.76533 841.16 3.29728 835.305C-0.143354 830.792 0.0238996 830.733 0.955738 825.055C3.10614 824.893 3.34507 826.044 3.96629 826.825C10.298 834.966 16.2952 843.21 22.9376 851.263C47.1415 880.64 79.2063 906.316 118.582 928.586C146.824 944.558 177.479 958.524 209.401 971.546C248.705 987.563 289.396 1002.22 329.513 1017.44C357.731 1028.15 385.399 1039.33 411.992 1051.51C439.398 1064.07 464.916 1077.98 487.161 1094.01C518.915 1116.9 541.255 1142.93 553.584 1172.1C559.772 1186.76 563.523 1201.7 565.937 1216.79C569.115 1236.74 570.142 1256.77 571.552 1276.78C572.699 1293.07 574.276 1309.33 576.928 1325.57C579.914 1344 585.314 1362.14 593.605 1379.92C599.602 1392.76 607.511 1405.21 617.164 1417.2C636.016 1440.59 660.841 1461.38 689.131 1480.7C716.703 1499.52 746.761 1516.76 776.341 1534.33C799.279 1547.94 821.643 1561.92 844.198 1575.77C845.703 1576.7 847.663 1577.51 847.758 1579.06Z" fill="white" fill-opacity="0.1"></path><path d="M2558.33 1150.73C2557.42 1150.39 2556.27 1150.08 2555.39 1149.6C2525.86 1133.43 2494.77 1118.44 2463.66 1103.45C2436.07 1090.16 2408.44 1076.89 2382.07 1062.69C2351.79 1046.39 2323.48 1028.9 2300.28 1008.52C2278.47 989.348 2262.65 968.42 2253.62 945.679C2246.93 928.837 2243.77 911.656 2243.53 894.297C2243.22 872.854 2245.78 851.514 2250.34 830.277C2254.45 811.208 2258.49 792.139 2262.67 773.07C2265.35 760.814 2268.53 748.588 2270.94 736.303C2276.03 710.347 2279.33 684.302 2277.13 658.125C2274.64 628.688 2265.01 600.151 2248.36 572.513C2238.25 555.745 2226.31 539.478 2213.16 523.535C2200.45 508.139 2187.62 492.786 2175.34 477.257C2162.08 460.488 2149.75 443.454 2140.31 425.698C2130.37 406.998 2123.09 387.929 2118.93 368.402C2113.43 342.608 2112.69 316.711 2113.77 290.755C2114.49 273.278 2115.7 255.817 2116.47 238.341C2117.28 219.67 2116.73 200.984 2113.05 182.431C2109.09 162.448 2101.2 143.069 2086.77 124.87C2072.46 106.819 2052.86 91.26 2028.64 77.8689C2000.92 62.5459 1969.55 50.6738 1936.41 40.4388C1893.93 27.3279 1849.8 16.7537 1804.8 7.50674C1797.56 6.01721 1790.33 4.51292 1783.11 2.97914C1780.77 2.47771 1778.47 1.84355 1775.61 1.13566C1779.14 -0.280142 1781.7 0.752211 1784.21 1.29788C1806.72 6.12044 1829.32 10.8103 1851.71 15.8835C1887.28 23.9211 1922.03 33.1828 1955.43 44.2585C1983.26 53.4907 2009.59 64.1091 2033.03 77.2938C2067.73 96.7905 2092.03 120.343 2105.26 148.202C2111.64 161.637 2115.35 175.352 2117.47 189.274C2120.53 209.273 2119.79 229.3 2119.03 249.328C2118.26 269.356 2116.8 289.383 2116.47 309.411C2116.13 330.441 2117.93 351.413 2122.97 372.266C2128.2 393.916 2137.14 414.947 2149.47 435.446C2159.67 452.406 2172.09 468.762 2185.21 484.911C2198.47 501.222 2211.99 517.459 2225.16 533.8C2234.81 545.76 2243.34 558.045 2250.92 570.552C2260.5 586.391 2267.93 602.628 2272.9 619.279C2279.73 642.182 2282.24 665.248 2280.26 688.491C2279.42 698.298 2278.61 708.105 2277.37 717.898C2276.51 724.741 2275.05 731.554 2273.61 738.368C2272.06 745.757 2270.22 753.131 2268.55 760.519C2264.99 776.27 2261.31 792.006 2257.92 807.771C2252.97 830.749 2248.38 853.741 2247.14 876.939C2246.26 893.87 2247.36 910.741 2251.54 927.48C2257.49 951.21 2270.17 973.479 2290.08 994.214C2307.93 1012.78 2330.34 1028.99 2355.11 1044.08C2378.24 1058.18 2403.26 1070.93 2428.63 1083.42C2456.73 1097.26 2485.29 1110.74 2513.48 1124.51C2526.45 1130.85 2539.05 1137.48 2551.78 1144.01C2554.22 1145.26 2556.54 1146.62 2558.73 1148.03C2559.86 1148.77 2560.26 1149.73 2558.28 1150.73H2558.33Z" fill="white" fill-opacity="0.1"></path><path d="M1935.55 1.17982C1938.68 -0.206485 1940.92 0.811119 1943.1 1.40103C1959.63 5.98763 1976.29 10.3972 1992.58 15.3083C2015.45 22.2103 2037.5 30.0267 2058.31 39.1409C2085.24 50.9244 2109.3 64.5367 2128.58 81.1576C2145.79 95.9792 2158.38 112.172 2166.24 129.796C2174.55 148.482 2178.14 167.506 2178.95 186.826C2179.81 207.06 2178.69 227.265 2176.94 247.455C2176.44 253.339 2176.46 259.238 2175.94 265.123C2174.39 282.393 2173.98 299.677 2174.96 316.962C2176.18 338.597 2179.86 360.07 2187.89 381.174C2194.43 398.385 2203.13 415.183 2214.19 431.523C2222.65 444.029 2232.09 456.255 2241.84 468.378C2250.03 478.569 2258.66 488.627 2267.35 498.67C2286.11 520.335 2303.53 542.398 2316.74 565.611C2324.12 578.589 2329.62 591.877 2333.78 605.43C2340.06 625.989 2342.71 646.71 2341.97 667.563C2341.45 682.282 2340.11 696.985 2337.55 711.659C2333.66 733.914 2328.83 756.095 2324.1 778.275C2319.56 799.498 2315.02 820.72 2312.92 842.104C2311.15 860.171 2310.98 878.251 2314.3 896.259C2321.07 933.099 2342.95 966.06 2381.42 994.73C2396.67 1006.12 2413.41 1016.54 2431.14 1026.44C2452.89 1038.58 2476.16 1049.52 2499.74 1060.21C2517.42 1068.23 2535.51 1075.92 2553.36 1083.81C2555.79 1084.88 2559.09 1085.61 2559.45 1087.82C2558.14 1088.85 2556.97 1088.35 2555.96 1087.92C2518.83 1071.71 2481.49 1055.65 2446.46 1037.71C2425.15 1026.78 2404.86 1015.16 2386.58 1002.28C2365.27 987.283 2347.49 970.824 2334.47 952.507C2323.03 936.402 2315.69 919.546 2312.04 902.114C2308.26 884.151 2307.57 866.129 2309.29 848.018C2310.89 831.147 2313.66 814.364 2317.24 797.61C2321.86 776.004 2326.59 754.399 2330.84 732.764C2335.81 707.412 2339.73 682.001 2338.92 656.399C2338.22 634.321 2333.99 612.554 2325.49 591.081C2317 569.608 2304.29 549.108 2288.6 529.331C2274.47 511.531 2259.59 493.966 2244.94 476.327C2232.61 461.476 2220.55 446.522 2210.37 431.066C2196.56 410.109 2186.05 388.548 2179.95 366.161C2176.78 354.524 2174.27 342.844 2173.24 331.09C2172 316.785 2170.92 302.464 2171.97 288.1C2173.24 270.83 2173.5 253.546 2174.98 236.291C2176.37 220.186 2176.94 204.096 2176.15 187.991C2175.01 164.336 2170.25 141.019 2156.82 118.632C2146.33 101.141 2131.31 85.3165 2111.5 71.2028C2090.47 56.2189 2065.72 44.0077 2038.77 33.3745C2014.85 23.9506 1989.64 16.0309 1963.77 8.92246C1954.52 6.37107 1945.25 3.83444 1935.6 1.17982H1935.55Z" fill="white" fill-opacity="0.1"></path><path d="M0.549559 950.708C3.58401 952.183 5.61494 953.082 7.45472 954.1C37.847 970.942 70.6525 985.778 105.154 999.243C135.833 1011.2 167.086 1022.54 198.362 1033.89C233.199 1046.52 267.939 1059.27 300.984 1073.68C328.055 1085.49 353.812 1098.26 376.845 1113.07C401.718 1129.08 422.266 1146.96 437.319 1167.1C445.562 1178.15 452.133 1189.61 457.127 1201.47C467.042 1224.99 470.961 1248.98 473.087 1273.14C474.855 1293.14 476.361 1313.15 478.607 1333.14C480.829 1352.94 485.106 1372.62 492.752 1391.94C504.34 1421.3 524.601 1448.2 553.369 1472.69C567.227 1484.49 582.662 1495.45 598.933 1505.97C625.551 1523.16 654.294 1538.99 683.229 1554.66C697.087 1562.18 710.754 1569.84 724.493 1577.45C725.138 1577.8 725.496 1578.38 726.452 1579.29C724.779 1579.38 723.489 1579.72 722.701 1579.45C720.789 1578.81 718.997 1577.95 717.349 1577.05C697.063 1566 676.706 1555.03 656.612 1543.87C632.265 1530.34 608.156 1516.66 585.864 1501.79C563.309 1486.75 543.047 1470.66 526.441 1452.87C507.088 1432.09 493.755 1409.93 485.488 1386.54C479.3 1369.02 475.644 1351.32 473.828 1333.46C472.323 1318.76 471.391 1304.04 469.79 1289.35C467.903 1272.3 466.732 1255.21 463.124 1238.25C458.082 1214.56 449.361 1191.5 433.233 1169.67C422.888 1155.67 409.842 1142.67 394.455 1130.56C373.118 1113.76 347.91 1099.41 320.6 1086.4C287.293 1070.52 251.716 1056.77 215.541 1043.59C190.334 1034.4 165.079 1025.27 139.943 1016.01C110.722 1005.23 81.8824 994.067 54.3095 981.708C37.2975 974.083 21.0022 965.928 5.23265 957.359C3.79905 956.578 2.22209 955.767 1.40972 954.764C0.669025 953.849 0.884065 952.655 0.525665 950.752L0.549559 950.708Z" fill="white" fill-opacity="0.1"></path><path d="M2062.25 0C2065.74 0.825882 2067.56 1.12084 2069.14 1.65176C2099.74 11.931 2128.27 24.0243 2153.57 38.8607C2185.81 57.7675 2209.1 80.1695 2222.36 106.45C2230.27 122.098 2234.12 138.158 2236.05 154.484C2237.87 169.807 2237.7 185.115 2237.01 200.424C2236.39 214.169 2234.91 227.884 2233.78 241.615C2232.35 259.076 2231.37 276.552 2231.66 294.043C2232.04 315.9 2235.07 337.594 2242.03 359.037C2248.55 379.124 2258.63 398.503 2271.42 417.409C2284.56 436.832 2300.45 455.4 2316.22 474.012C2328.45 488.45 2340.87 502.844 2352.41 517.489C2365.1 533.564 2375.95 550.14 2383.98 567.351C2391.55 583.603 2397.02 600.121 2399.72 616.992C2403.12 638.185 2402.9 659.378 2400.61 680.571C2397.79 706.645 2392.58 732.557 2387.08 758.469C2381.73 783.791 2376.62 809.128 2375.4 834.686C2374.44 854.596 2376.33 874.373 2383.07 893.884C2391.31 917.82 2406.68 939.824 2429.9 959.748C2446.15 973.7 2464.95 986.147 2485.64 997.591C2506.77 1009.27 2529.18 1019.92 2552.45 1029.9C2554.98 1031 2558.18 1031.73 2559.12 1033.87C2557.51 1034.89 2556.18 1034.2 2554.91 1033.68C2537.76 1026.53 2521.13 1018.95 2505.09 1010.89C2489.78 1003.21 2474.96 995.173 2461.15 986.457C2426.32 964.467 2399.91 939.308 2385.75 909.635C2377.98 893.368 2373.75 876.718 2372.6 859.743C2371.03 835.91 2373.49 812.24 2378.24 788.599C2381.73 771.255 2385.32 753.927 2388.54 736.568C2391.65 719.785 2394.97 703.017 2397.07 686.19C2399.34 667.976 2400.32 649.718 2398.43 631.416C2396.78 615.503 2393.75 599.708 2387.82 584.208C2383.24 572.174 2377.57 560.331 2370.38 548.739C2363.09 536.985 2355.19 525.438 2346.15 514.17C2339.25 505.543 2332.18 496.974 2324.96 488.45C2307.59 467.921 2289.46 447.628 2274.12 426.45C2259.54 406.319 2247.93 385.569 2240.52 363.993C2234.43 346.28 2231.11 328.376 2229.58 310.281C2227.76 288.837 2229.05 267.453 2230.65 246.083C2232.21 225.48 2234.24 204.907 2234.48 184.275C2234.72 164.188 2233.07 144.22 2226.52 124.472C2220.12 105.226 2208.84 87.1895 2191.8 70.5834C2179.14 58.2394 2163.8 47.2375 2146.31 37.4006C2123.16 24.3635 2097.62 13.4058 2070.26 3.99668C2068.06 3.22979 2065.91 2.40391 2063.76 1.57802C2063.52 1.48954 2063.43 1.25357 2062.23 0.0147479L2062.25 0Z" fill="white" fill-opacity="0.1"></path><path d="M2166.64 1.10624C2168.94 0.132877 2170.25 0.81128 2171.47 1.38645C2182.84 6.75468 2194.07 12.1672 2204.73 18.1105C2217.54 25.2485 2229.13 33.0207 2239.64 41.427C2261.74 59.1097 2276.53 78.9308 2284.84 100.64C2292.87 121.611 2294.93 142.937 2294.83 164.395C2294.76 182.078 2293.04 199.731 2291.44 217.369C2289 244.24 2287.21 271.14 2289.34 298.055C2290.51 312.773 2293.47 327.374 2297.89 341.871C2301.62 354.053 2306.8 365.969 2312.92 377.753C2318.65 388.784 2325.49 399.565 2333.16 410.154C2345.49 427.202 2359.75 443.631 2373.94 460.105C2390.84 479.675 2408.11 499.128 2422.33 519.524C2430 530.526 2437.07 541.675 2442.61 553.149C2454.15 576.967 2460.48 601.345 2461.99 626.21C2463.06 643.908 2462.09 661.561 2459.96 679.199C2457.28 701.336 2452.91 723.354 2448.25 745.358C2446.44 753.927 2445.12 762.525 2443.81 771.123C2442.23 781.476 2440.7 791.844 2439.48 802.226C2436.95 823.67 2438.1 845.054 2444.28 866.232C2452.43 894.15 2470.19 919.501 2498.71 941.918C2515.49 955.103 2534.41 966.96 2555.36 977.608C2557.01 978.449 2558.33 979.525 2559.71 980.454C2558.4 981.531 2557.25 981.442 2556.2 980.882C2546.62 975.72 2536.75 970.721 2527.55 965.323C2514.39 957.595 2502.46 949.145 2491.62 940.163C2476.52 927.657 2464.38 914.104 2455.44 899.503C2442.73 878.723 2436.71 857.147 2435.73 834.966C2434.85 815.101 2436.23 795.309 2439.89 775.562C2443.28 757.23 2446.6 738.884 2450.26 720.582C2454.56 699.124 2458.05 677.636 2459.03 656.03C2459.5 645.235 2459.58 634.41 2458.76 623.629C2457.43 605.961 2453.63 588.456 2447.03 571.201C2439.05 550.273 2427.01 530.29 2412.43 510.808C2399.77 493.848 2385.12 477.537 2371.12 461.004C2359.2 446.92 2346.99 432.91 2335.88 418.575C2319.25 397.102 2306.21 374.773 2297.91 351.472C2291.58 333.597 2287.78 315.516 2286.4 297.229C2285.01 279.163 2285.06 261.111 2286.85 243.045C2288.09 230.495 2288.43 217.915 2289.79 205.379C2291.56 189.289 2291.73 173.199 2291.77 157.095C2291.82 141.55 2289.79 126.08 2285.16 110.801C2276.94 83.6649 2259.49 59.1539 2230.8 37.74C2214.05 25.2338 2194.81 14.4531 2173.84 4.77846C2171.4 3.65762 2169.13 2.40405 2166.62 1.15048L2166.64 1.10624Z" fill="white" fill-opacity="0.1"></path><path d="M603.449 1578.86C600.032 1580.25 598.264 1579.31 596.544 1578.45C591.813 1576.14 587.011 1573.85 582.423 1571.43C560.155 1559.71 537.623 1548.16 516.573 1535.58C491.605 1520.67 468.141 1504.92 448.573 1487.1C428.789 1469.1 413.33 1449.79 402.913 1429C394.622 1412.45 389.055 1395.55 385.566 1378.34C381.003 1355.7 379.187 1332.94 376.893 1310.2C374.958 1290.99 372.616 1271.78 367.264 1252.79C360.407 1228.44 349.081 1205.01 329.56 1183.28C316.849 1169.12 301.51 1156.18 283.685 1144.29C258.239 1127.31 229.137 1113.07 198.291 1100.09C171.196 1088.69 143.121 1078.28 114.664 1068.2C79.0629 1055.59 43.5814 1042.84 8.09983 1030.13C5.63882 1029.24 3.32117 1028.18 1.21856 1027C0.645121 1026.67 1.02741 1025.69 0.907947 1024.43C3.48842 1025.2 5.18485 1025.64 6.76181 1026.2C34.7886 1036.3 62.7199 1046.48 90.8184 1056.51C121.665 1067.53 152.726 1078.35 182.688 1090.27C208.923 1100.69 234.369 1111.83 257.904 1124.53C286.624 1140.03 311.593 1157.49 330.827 1177.9C344.326 1192.22 354.577 1207.44 361.84 1223.4C366.762 1234.19 370.513 1245.13 373.333 1256.21C376.845 1270 379.019 1283.88 380.453 1297.8C382.054 1313.09 383.153 1328.4 384.945 1343.68C386.164 1354.06 388.338 1364.39 389.891 1374.75C391.874 1387.89 395.96 1400.78 401.049 1413.59C411.323 1439.41 428.383 1463.36 452.539 1485.41C469.002 1500.44 488.092 1514.08 508.76 1526.94C535.234 1543.41 563.715 1558.5 592.697 1573.25C596.114 1574.97 599.435 1576.77 603.425 1578.86H603.449Z" fill="white" fill-opacity="0.1"></path><path d="M2558.23 920.062C2556.42 918.72 2554.96 917.732 2553.69 916.67C2525.86 893.678 2509.49 867.854 2502.68 839.509C2498.45 821.915 2498.16 804.291 2499.17 786.608C2500.51 762.643 2505.62 738.884 2509.99 715.081C2513.72 694.788 2517.33 674.495 2518.78 654.069C2519.95 637.758 2519.98 621.447 2518.04 605.18C2515.08 580.211 2507.39 555.789 2494.13 532.06C2485.41 516.427 2474.72 501.325 2462.97 486.518C2454.44 475.767 2444.93 465.325 2435.8 454.766C2417.88 433.986 2399.37 413.383 2384.26 391.719C2369.36 370.349 2358.15 348.301 2351.36 325.412C2347.71 313.039 2345.32 300.577 2344 288.012C2342.12 270.137 2342.31 252.277 2343.29 234.403C2343.86 223.814 2345.37 213.24 2346.18 202.651C2348.09 177.343 2350.58 152.051 2348.28 126.699C2346.59 107.822 2342.21 89.2101 2332.46 71.1734C2323.31 54.2429 2309.86 38.7576 2291.96 24.7323C2282.31 17.1667 2271.94 9.98445 2260.26 3.56912C2259.09 2.93496 2258.13 2.13858 2257.08 1.43068C2258.8 0.0886211 2259.92 1.01774 2261 1.57816C2272.32 7.65429 2282.41 14.4383 2291.92 21.591C2315.09 39.023 2331.05 58.741 2340.37 80.4794C2346.32 94.3719 2349.19 108.589 2350.89 122.924C2352.73 138.439 2352.32 153.939 2351.55 169.453C2351.03 180.234 2349.62 191.015 2348.74 201.795C2347.02 222.988 2345.2 244.166 2345.65 265.388C2346.13 287.628 2349 309.72 2356.48 331.518C2363.17 350.956 2372.82 369.803 2385.44 388.12C2398.15 406.57 2413.01 424.326 2428.42 441.95C2440.37 455.592 2451.64 469.455 2463.47 483.141C2474.58 495.986 2483.83 509.333 2492.29 522.901C2499.93 535.186 2505.91 547.825 2510.59 560.671C2518.71 582.999 2522.39 605.622 2522.37 628.467C2522.37 637.507 2522.42 646.547 2521.65 655.558C2520.07 674.377 2516.97 693.121 2513.58 711.851C2510.04 731.363 2506.48 750.874 2503.73 770.43C2500.79 791.401 2500.55 812.402 2504.81 833.359C2510.4 860.893 2524.64 886.466 2549.96 909.532C2552.64 911.965 2555.58 914.295 2558.3 916.714C2559.14 917.466 2560.36 918.292 2558.26 920.047L2558.23 920.062Z" fill="white" fill-opacity="0.1"></path><path d="M1.69642 1084.35C3.58399 1084.88 5.61492 1085.33 7.4547 1085.98C35.4338 1095.72 63.5323 1105.35 90.6273 1116.03C123.385 1128.94 154.9 1142.87 182.999 1159.58C219.603 1181.35 247.081 1206.75 263.949 1236.42C273.578 1253.35 279.623 1270.78 283.781 1288.52C288.559 1308.96 290.829 1329.52 293.242 1350.1C296.11 1374.59 299.431 1399.06 307.961 1423.13C314.794 1442.4 324.662 1461 339.142 1478.64C354.768 1497.68 374.671 1514.87 397.967 1530.62C421.86 1546.76 448.047 1561.34 475.548 1575.07C477.269 1575.94 478.941 1576.86 480.566 1577.79C480.972 1578.02 481.092 1578.47 481.354 1578.85C479.037 1580.12 477.221 1579.07 475.572 1578.25C467.902 1574.41 460.042 1570.71 452.754 1566.62C437.2 1557.92 421.549 1549.25 406.616 1540.15C384.348 1526.58 364.994 1511.54 348.532 1495.07C323.778 1470.32 308.845 1443.38 300.363 1414.9C293.888 1393.22 291.283 1371.29 288.535 1349.36C285.836 1327.62 283.375 1305.87 277.76 1284.3C272.527 1264.26 264.714 1244.65 251.811 1225.93C240.916 1210.14 226.867 1195.48 209.401 1182.06C185.293 1163.53 156.836 1147.96 125.75 1134.08C94.498 1120.13 61.4775 1107.93 27.979 1096.23C19.6642 1093.32 11.3971 1090.4 3.13002 1087.44C1.48138 1086.85 -0.047791 1086.03 1.67253 1084.37L1.69642 1084.35Z" fill="white" fill-opacity="0.1"></path><path d="M0.549555 1142.15C4.08576 1143.34 6.59456 1144.07 8.86442 1145C37.0824 1156.43 64.4402 1168.52 89.122 1182.82C127.877 1205.27 156.836 1231.63 174.349 1262.68C183.572 1279.07 189.737 1295.91 193.536 1313.06C196.809 1327.84 199.629 1342.68 202.305 1357.5C204.12 1367.65 205.148 1377.84 206.892 1388C210.954 1411.64 215.972 1435.19 227.058 1458.06C239.22 1483.14 257.713 1506.22 283.303 1527.13C300.626 1541.29 320.385 1554.03 341.579 1565.95C348.627 1569.91 355.891 1573.73 363.011 1577.64C363.656 1577.99 364.014 1578.55 365.018 1579.51C363.13 1579.44 361.792 1579.63 360.932 1579.31C358.758 1578.51 356.703 1577.55 354.792 1576.53C331.759 1564.13 309.275 1551.37 289.897 1536.72C271.954 1523.15 256.28 1508.66 243.807 1492.84C226.676 1471.1 216.282 1448.15 209.783 1424.42C204.336 1404.46 201.373 1384.33 198.434 1364.18C195.065 1341.1 191.027 1318.06 183.429 1295.35C177.169 1276.64 168.065 1258.47 154.255 1241.3C139.848 1223.4 121.02 1207.42 98.7032 1192.99C71.5366 1175.39 40.2841 1160.94 7.45472 1147.7C5.32821 1146.84 3.17782 1145.98 1.31414 1144.94C0.669021 1144.57 0.860168 1143.61 0.477875 1142.16L0.549555 1142.15Z" fill="white" fill-opacity="0.1"></path><path d="M0.645105 1210.15C2.50878 1210.85 3.67955 1211.14 4.51582 1211.64C30.2728 1227.08 51.8007 1244.46 67.8331 1264.37C78.3461 1277.43 86.8282 1290.96 92.7538 1305.05C99.4678 1321.03 104.485 1337.22 107.759 1353.62C111.295 1371.35 114.951 1389.07 118.343 1406.82C120.996 1420.66 124.197 1434.45 128.761 1448.09C136.263 1470.48 147.446 1492.09 164.84 1512.41C179.964 1530.08 198.912 1545.98 220.941 1560.52C228.969 1565.81 237.643 1570.74 245.982 1575.86C247.439 1576.76 248.681 1577.79 250.139 1578.83C247.081 1580 245.432 1578.91 243.831 1578.01C238.67 1575.09 233.461 1572.2 228.516 1569.15C204.312 1554.25 182.855 1538 165.843 1519.64C153.801 1506.64 144.244 1492.99 136.789 1478.73C127.184 1460.35 120.805 1441.55 116.79 1422.43C112.299 1401.02 107.998 1379.59 103.649 1358.16C99.2528 1336.5 92.9449 1315.07 82.1213 1294.26C71.8232 1274.5 57.0094 1256.11 36.9629 1239.38C27.095 1231.17 16.7253 1223.23 4.75475 1216.14C3.39283 1215.33 1.98313 1214.44 1.14686 1213.43C0.525639 1212.66 0.788465 1211.63 0.573425 1210.17L0.645105 1210.15Z" fill="white" fill-opacity="0.1"></path><path d="M2339.56 0.413086C2340.71 0.94401 2342.07 1.35695 2343 2.00586C2358.29 12.6538 2370.88 24.4079 2380.9 37.2238C2394.73 54.936 2402.14 73.7101 2406.03 93.1625C2410.81 117.054 2410.24 140.975 2408.52 164.94C2407.39 180.441 2406.39 195.941 2404.98 211.441C2403.52 227.545 2403.4 243.65 2404.24 259.755C2405.2 278.042 2408.3 296.197 2414.13 314.16C2420.58 334.04 2430.43 353.286 2443.16 371.986C2450.57 382.855 2458.5 393.562 2467.39 403.989C2483.25 422.586 2499.67 440.991 2515.32 459.647C2525.12 471.328 2534.29 483.215 2543.04 495.205C2548.65 502.888 2553.05 510.911 2557.75 518.831C2558.9 520.763 2560.41 522.798 2559.28 525.865C2557.99 524.641 2557.16 524.11 2556.8 523.476C2550.25 511.354 2543.04 499.393 2534 487.904C2523.73 474.823 2513.24 461.815 2502.39 448.926C2490.4 434.635 2477.81 420.536 2465.62 406.304C2455.2 394.152 2445.79 381.705 2437.36 368.977C2429.4 356.958 2422.95 344.643 2417.48 332.122C2408.92 312.508 2404 292.51 2402.14 272.261C2400.73 256.776 2399.75 241.261 2401.28 225.731C2402.59 212.207 2403.12 198.654 2403.95 185.101C2404.96 168.819 2406.46 152.523 2406.8 136.226C2407.27 112.984 2404.55 89.8885 2395.06 67.28C2386.18 46.102 2371.31 26.7086 2349 9.60102C2345.41 6.85791 2341.9 4.08531 2338.34 1.31271C2338.75 1.0325 2339.15 0.737539 2339.56 0.45733V0.413086Z" fill="white" fill-opacity="0.1"></path><path d="M2415.64 0.3835C2416.81 0.781693 2418.1 0.958667 2418.65 1.44535C2421.39 3.84925 2424.09 6.28265 2426.58 8.7898C2439.17 21.6205 2448.82 35.2475 2455.35 49.7004C2459.96 59.9355 2462.92 70.3475 2465.07 80.8775C2469.32 101.598 2469.21 122.408 2468.32 143.217C2467.68 158.717 2465.91 174.202 2465.05 189.687C2464.26 203.816 2463.42 217.959 2463.73 232.088C2464.26 256.481 2467.8 280.726 2476.56 304.559C2482.78 321.415 2491.09 337.904 2501.87 353.89C2514.82 373.136 2530.04 391.674 2546.28 409.918C2550.11 414.224 2553.84 418.545 2557.49 422.91C2558.47 424.076 2559.02 425.373 2559.69 426.524C2557.68 427.438 2556.99 426.686 2556.42 426.008C2550.3 419.12 2544.02 412.292 2538.16 405.331C2529.8 395.406 2521.53 385.451 2513.62 375.378C2501.53 360.011 2491.43 344.157 2483.13 327.816C2472.98 307.847 2466.94 287.422 2463.49 266.701C2460.68 249.697 2460.13 232.589 2460.89 215.496C2461.65 198.418 2462.9 181.355 2463.95 164.292C2465.43 140.149 2466.74 116.007 2463.71 91.8941C2461.32 72.8251 2455.82 54.1248 2444.71 36.1766C2437.76 24.9535 2428.94 14.3055 2418.12 4.30644C2417 3.25934 2414.94 2.37446 2415.66 0.354004L2415.64 0.3835Z" fill="white" fill-opacity="0.1"></path><path d="M0.406193 1331.42C4.68309 1335.75 6.28395 1340.3 7.98037 1344.86C14.9094 1363.65 18.7562 1382.76 23.3438 1401.79C27.095 1417.32 30.679 1432.88 35.0515 1448.35C40.2602 1466.74 47.5477 1484.83 58.443 1502.32C71.2259 1522.82 88.3574 1541.8 110.889 1558.82C119.132 1565.05 128.164 1570.87 136.813 1576.9C137.602 1577.46 138.223 1578.11 139.537 1579.28C137.53 1579.34 136.168 1579.65 135.475 1579.35C133.396 1578.45 131.461 1577.42 129.717 1576.28C106.397 1561.11 86.207 1544.53 70.4375 1525.93C55.7431 1508.59 45.4451 1490.27 37.9187 1471.34C30.1772 1451.86 25.1835 1432.06 20.6438 1412.21C16.6775 1394.91 12.3051 1377.64 7.81312 1360.37C6.14059 1353.97 3.6079 1347.68 1.52918 1341.32C1.02742 1339.79 0.621233 1338.22 0.45398 1336.67C0.262833 1334.93 0.406193 1333.16 0.406193 1331.41V1331.42Z" fill="white" fill-opacity="0.1"></path><path d="M2559.02 332.211C2557.92 331.252 2557.04 330.721 2556.63 330.087C2545.33 311.283 2536.68 292.052 2531.26 272.231C2525.81 252.425 2523.9 232.471 2523.11 212.443C2522.3 191.427 2524.4 170.456 2525.14 149.47C2525.67 134.559 2526 119.649 2526.12 104.739C2526.26 86.8353 2523.52 69.0346 2517.88 51.4846C2512.55 34.8638 2503.8 18.8918 2490.49 3.98169C2489.73 3.12631 2489.08 2.24144 2488.44 1.43031C2489.56 0.515937 2490.78 0.412701 2491.59 1.22384C2493.29 2.8756 2494.87 4.58635 2496.3 6.3266C2506.1 18.2871 2513.38 30.8228 2518.4 43.86C2523.28 56.4989 2526.41 69.3001 2527.77 82.2487C2529.73 100.861 2529.75 119.487 2528.87 138.143C2527.65 164.04 2525.38 189.923 2526.43 215.865C2527.43 240.258 2531.14 264.474 2539.81 288.291C2544.33 300.724 2550.3 312.965 2557.49 324.94C2559.47 328.214 2559.43 328.229 2559 332.225L2559.02 332.211Z" fill="white" fill-opacity="0.1"></path><path d="M1.21855 1556.29C11.0865 1564.23 20.0465 1571.46 29.2454 1578.88C28.2897 1579.17 27.3578 1579.69 26.8799 1579.56C25.518 1579.19 24.0366 1578.7 23.1287 1577.99C16.558 1573.01 10.0352 1568 3.70345 1562.91C0.764573 1560.55 0.955719 1560.44 1.24244 1556.29H1.21855Z" fill="white" fill-opacity="0.1"></path></g><defs><clipPath id="clip0_440_1075"><rect width="2560" height="1580" fill="white"></rect></clipPath></defs></svg>